<svg width="27" height="27" viewBox="0 0 27 27" fill="none" xmlns="http://www.w3.org/2000/svg">
<g id="Group 1000002121">
<g id="Group">
<path id="Vector" d="M8.62852 18.9932C9.22067 18.3587 9.60134 17.5128 9.60134 16.6246C9.60134 14.7212 8.03637 13.1562 6.13302 13.1562C4.22967 13.1562 2.66469 14.7212 2.66469 16.6246C2.66469 17.5551 3.04536 18.401 3.63751 18.9932C1.2266 19.9237 0 21.5733 0 23.8573C0 24.7878 0.211483 25.4223 0.676747 25.803C1.39579 26.3951 2.45321 26.2259 3.72211 26.0567C4.44115 25.9298 5.28708 25.803 6.13302 25.803C6.97895 25.803 7.82488 25.9298 8.54393 26.0567C9.13608 26.1413 10.7857 26.4797 11.5893 25.803C12.0546 25.4223 12.266 24.7878 12.266 23.8573C12.266 21.531 11.0394 19.9237 8.62852 18.9932ZM3.46833 16.5823C3.46833 15.1442 4.65263 13.9599 6.09072 13.9599C7.52881 13.9599 8.71311 15.1442 8.71311 16.5823C8.71311 18.0204 7.52881 19.2047 6.09072 19.2047C4.65263 19.2047 3.46833 18.0204 3.46833 16.5823ZM11.0394 25.1262C10.6165 25.4646 9.72823 25.3377 8.67082 25.1685C7.90948 25.0416 7.06354 24.9147 6.13302 24.9147C5.20249 24.9147 4.35656 25.0416 3.59522 25.1685C2.5378 25.3377 1.60727 25.4646 1.2266 25.1262C0.972824 24.9147 0.845933 24.4918 0.845933 23.815C0.845933 21.7425 2.03024 20.3467 4.39885 19.5853C4.90641 19.8814 5.49857 20.0506 6.13302 20.0506C6.76747 20.0506 7.35962 19.8814 7.86718 19.5853C10.2781 20.389 11.4201 21.7425 11.4201 23.815C11.4201 24.4918 11.2932 24.957 11.0394 25.1262Z" fill="#354BC0"/>
<path id="Vector_2" d="M22.5445 18.9932C23.1367 18.3587 23.5174 17.5128 23.5174 16.6246C23.5174 14.7212 21.9524 13.1562 20.049 13.1562C18.1457 13.1562 16.5807 14.7212 16.5807 16.6246C16.5807 17.5551 16.9614 18.401 17.5535 18.9932C15.1426 19.9237 13.916 21.5733 13.916 23.8573C13.916 24.7878 14.1275 25.4223 14.5928 25.803C15.3118 26.3951 16.3692 26.2259 17.6381 26.0567C18.3572 25.9298 19.2031 25.803 20.049 25.803C20.895 25.803 21.7409 25.9298 22.4599 26.0567C23.0521 26.1413 24.7017 26.4797 25.5053 25.803C25.9706 25.4223 26.1821 24.7878 26.1821 23.8573C26.1821 21.531 24.9554 19.9237 22.5445 18.9932ZM17.4266 16.5823C17.4266 15.1442 18.6109 13.9599 20.049 13.9599C21.4871 13.9599 22.6714 15.1442 22.6714 16.5823C22.6714 18.0204 21.4871 19.2047 20.049 19.2047C18.5686 19.2047 17.4266 18.0204 17.4266 16.5823ZM24.9554 25.1262C24.5325 25.4646 23.6442 25.3377 22.5868 25.1685C21.8255 25.0416 20.9796 24.9147 20.049 24.9147C19.1185 24.9147 18.2726 25.0416 17.5112 25.1685C16.4538 25.3377 15.5233 25.4646 15.1426 25.1262C14.8888 24.9147 14.7619 24.4918 14.7619 23.815C14.7619 21.7425 15.9463 20.3467 18.3149 19.5853C18.8224 19.8814 19.4146 20.0506 20.049 20.0506C20.6835 20.0506 21.2756 19.8814 21.7832 19.5853C24.1941 20.389 25.3361 21.7425 25.3361 23.815C25.3361 24.4918 25.2092 24.957 24.9554 25.1262Z" fill="#354BC0"/>
<path id="Vector_3" d="M5.87925 8.45934V10.7434L7.99409 8.62852C8.71313 10.0666 10.1512 10.9971 11.8008 10.9971C11.8008 10.9971 16.1996 11.0394 16.4534 10.9548L18.8643 12.3083L18.2299 10.3627C19.4988 9.60135 20.2601 8.24785 20.2601 6.76747C20.2601 4.90641 19.0335 3.29914 17.2994 2.74928V1.2689C17.2994 0.549857 16.7495 0 16.0305 0H5.87925C5.16021 0 4.61035 0.549857 4.61035 1.2689V7.19043C4.61035 7.90948 5.16021 8.45934 5.87925 8.45934ZM17.2571 7.19043V3.63751C18.526 4.14507 19.3719 5.37168 19.3719 6.76747C19.3719 9.09379 17.1725 9.93972 17.1725 9.93972L17.3416 10.4896L16.5803 10.0666C16.5803 10.0666 16.4111 10.1089 15.9882 10.1089H11.7585C10.5319 10.1089 9.43217 9.43216 8.84002 8.41704H15.9882C16.7072 8.45933 17.2571 7.90948 17.2571 7.19043ZM5.45628 1.2689C5.45628 1.01512 5.62547 0.845933 5.87925 0.845933H16.0305C16.2842 0.845933 16.4534 1.01512 16.4534 1.2689V7.19043C16.4534 7.44421 16.2842 7.6134 16.0305 7.6134H7.8249L6.72519 8.71311V7.6134H5.87925C5.62547 7.6134 5.45628 7.44421 5.45628 7.19043V1.2689Z" fill="#354BC0"/>
<path id="Vector_4" d="M7.57129 1.69531H14.3388V2.54125H7.57129V1.69531Z" fill="#354BC0"/>
<path id="Vector_5" d="M6.72559 3.80469H15.1849V4.65062H6.72559V3.80469Z" fill="#354BC0"/>
<path id="Vector_6" d="M10.5322 5.92188H11.3782V6.76781H10.5322V5.92188Z" fill="#354BC0"/>
<path id="Vector_7" d="M8.83984 5.92188H9.68578V6.76781H8.83984V5.92188Z" fill="#354BC0"/>
<path id="Vector_8" d="M12.2236 5.92188H13.0696V6.76781H12.2236V5.92188Z" fill="#354BC0"/>
</g>
</g>
</svg>
