<svg width="27" height="27" viewBox="0 0 27 27" fill="none" xmlns="http://www.w3.org/2000/svg">
<g id="Group 1000002119">
<path id="Vector" d="M23.8424 4.05904H23.3784C24.16 3.48227 24.4831 2.469 24.1795 1.54609C23.8758 0.623535 23.0142 0 22.0429 0C21.0713 0 20.2098 0.623535 19.9064 1.54609C19.6026 2.469 19.9257 3.48227 20.7071 4.05904H20.2435C19.2767 4.0601 18.3643 4.50555 17.7693 5.26726C17.1742 4.50538 16.2618 4.05975 15.295 4.05904H14.8311C15.6126 3.48227 15.9357 2.469 15.6321 1.54609C15.3284 0.623535 14.467 0 13.4956 0C12.5241 0 11.6626 0.623535 11.359 1.54609C11.0552 2.469 11.3783 3.48227 12.1599 4.05904H11.6962C10.7295 4.05975 9.81677 4.50538 9.22206 5.26726C8.62683 4.50555 7.71429 4.0601 6.74779 4.05904H6.28387C7.06544 3.48227 7.38855 2.469 7.08495 1.54609C6.78119 0.623535 5.91963 0 4.94838 0C3.97677 0 3.11539 0.623535 2.8118 1.54609C2.50803 2.469 2.83113 3.48227 3.61271 4.05904H3.14897C1.41056 4.06115 0.00210951 5.46995 0 7.20801V8.10771H0.899705V7.20801C0.900935 5.96656 1.90717 4.96033 3.14897 4.95875H6.74779C7.58034 4.95945 8.34398 5.42108 8.73107 6.158C8.61013 6.495 8.5479 6.85027 8.54719 7.20801V8.10771H9.4469V7.20801C9.44831 5.96656 10.4545 4.96033 11.6962 4.95875H15.295C16.5366 4.96033 17.5428 5.96656 17.5444 7.20801V8.10771H18.4441V7.20801C18.4432 6.85027 18.381 6.495 18.2599 6.158C18.6472 5.42108 19.4108 4.95945 20.2435 4.95875H23.8424C25.0838 4.96033 26.09 5.96656 26.0916 7.20801V8.10771H26.9913V7.20801C26.9889 5.46995 25.5804 4.06115 23.8424 4.05904ZM22.0429 0.910076C22.7881 0.910076 23.3925 1.51427 23.3925 2.25963C23.3925 3.00482 22.7881 3.60919 22.0429 3.60919C21.2974 3.60919 20.6934 3.00482 20.6934 2.25963C20.6934 1.51427 21.2974 0.910076 22.0429 0.910076ZM13.4956 0.910076C14.2409 0.910076 14.8451 1.51427 14.8451 2.25963C14.8451 3.00482 14.2409 3.60919 13.4956 3.60919C12.75 3.60919 12.146 3.00482 12.146 2.25963C12.146 1.51427 12.75 0.910076 13.4956 0.910076ZM4.94838 0.910076C5.69374 0.910076 6.29793 1.51427 6.29793 2.25963C6.29793 3.00482 5.69374 3.60919 4.94838 3.60919C4.20284 3.60919 3.59882 3.00482 3.59882 2.25963C3.59882 1.51427 4.20284 0.910076 4.94838 0.910076Z" fill="#354BC0"/>
<path id="Vector_2" d="M23.8424 9.90279H23.3784C24.16 9.32602 24.4831 8.31275 24.1795 7.39002C23.8758 6.46746 23.0142 5.84375 22.0429 5.84375C21.0713 5.84375 20.2098 6.46746 19.9064 7.39002C19.6026 8.31275 19.9257 9.32602 20.7071 9.90279H20.2435C19.2767 9.90385 18.3643 10.3493 17.7693 11.1112C17.1742 10.3491 16.2618 9.9035 15.295 9.90279H14.8311C15.6126 9.32602 15.9357 8.31275 15.6321 7.39002C15.3284 6.46746 14.467 5.84375 13.4956 5.84375C12.5241 5.84375 11.6626 6.46746 11.359 7.39002C11.0552 8.31275 11.3783 9.32602 12.1599 9.90279H11.6962C10.7295 9.9035 9.81677 10.3491 9.22206 11.1112C8.62683 10.3493 7.71429 9.90385 6.74779 9.90279H6.28387C7.06544 9.32602 7.38855 8.31275 7.08495 7.39002C6.78119 6.46746 5.91963 5.84375 4.94838 5.84375C3.97677 5.84375 3.11539 6.46746 2.8118 7.39002C2.50803 8.31275 2.83113 9.32602 3.61271 9.90279H3.14897C1.40968 9.90279 0 11.3128 0 13.0518V15.1293L1.14827 15.7059L1.19556 15.7259C2.32222 16.1615 3.51778 16.3925 4.72565 16.4076C6.07063 16.3809 7.40015 16.1151 8.65197 15.6224L9.1586 15.4371L9.69565 15.7069L9.74065 15.7268C10.5173 16.0163 11.3242 16.2172 12.146 16.3261V20.9629L11.0065 19.8236C10.9538 19.7691 10.8958 19.7199 10.8334 19.6768C10.6077 19.5148 10.3361 19.4284 10.0583 19.4309C9.70022 19.4311 9.35637 19.571 9.10006 19.8206C8.69486 20.2176 8.58657 20.8278 8.83022 21.34C8.89421 21.4859 8.98457 21.619 9.09637 21.7326L12.0131 24.6497C12.0977 24.734 12.1451 24.8486 12.1451 24.9682V26.9974H13.0448V24.9682C13.0448 24.6101 12.9026 24.2666 12.6493 24.0135L9.74241 21.1041C9.70285 21.064 9.67121 21.0167 9.64888 20.9649C9.56503 20.7954 9.59896 20.5915 9.73291 20.4584C9.818 20.3695 9.93736 20.3222 10.0601 20.3289C10.1548 20.3267 10.2476 20.3575 10.3227 20.4155C10.3399 20.428 10.3559 20.4424 10.3703 20.4577L11.51 21.5991C11.7672 21.8563 12.1543 21.9333 12.4902 21.7941C12.8263 21.6549 13.0455 21.3268 13.0457 20.9629V14.4013C13.0457 14.1529 13.2472 13.9515 13.4956 13.9515C13.7441 13.9515 13.9454 14.1529 13.9454 14.4013V19.3497C13.9454 19.5983 14.1469 19.7995 14.3953 19.7995C14.6438 19.7995 14.8451 19.5983 14.8451 19.3497V18.0001C14.8441 17.9223 14.8648 17.8453 14.9049 17.7786C14.9763 17.6568 15.1004 17.5754 15.2403 17.5582C15.3802 17.5411 15.5202 17.5904 15.6188 17.6911C15.6995 17.7739 15.7445 17.8848 15.7448 18.0001V19.7995C15.7448 20.0481 15.9463 20.2494 16.1947 20.2494C16.4433 20.2494 16.6445 20.0481 16.6445 19.7995V18.45C16.6449 18.3987 16.6547 18.3477 16.6739 18.2999C16.7286 18.1568 16.8518 18.0509 17.0014 18.0186C17.1512 17.9861 17.3071 18.0316 17.4161 18.1392C17.4822 18.2041 17.5253 18.2888 17.5384 18.3804C17.5423 18.4034 17.5444 18.4268 17.5444 18.45V20.2494C17.5444 20.498 17.7457 20.6992 17.9943 20.6992C18.2427 20.6992 18.4441 20.498 18.4441 20.2494V19.3497C18.4446 19.1484 18.5793 18.9717 18.7737 18.9179L18.8372 18.9046C18.8557 18.9007 18.8748 18.8993 18.894 18.8998C19.0151 18.8997 19.1313 18.9498 19.2146 19.038C19.2981 19.1203 19.3449 19.2326 19.3438 19.3497V23.4757C19.3438 23.5952 19.2964 23.7095 19.212 23.7939L18.839 24.1667C18.5862 24.4199 18.4441 24.763 18.4441 25.1206V26.9974H19.3438V25.1206C19.3438 25.0012 19.3911 24.8868 19.4755 24.8026L19.8484 24.4296C20.1013 24.1764 20.2432 23.8336 20.2435 23.4757V19.3497C20.2397 18.6061 19.6376 18.004 18.894 18.0001C18.8221 17.9998 18.7505 18.0058 18.6797 18.0182L18.637 18.0269C18.5536 18.0432 18.4721 18.0676 18.3935 18.0996C18.3362 17.873 18.2179 17.6663 18.0512 17.5023C17.8004 17.2435 17.4548 17.0983 17.0944 17.1004C16.8627 17.1017 16.6352 17.1625 16.4339 17.2773C16.3837 17.1952 16.323 17.1196 16.2541 17.0524C16.0027 16.793 15.6562 16.6478 15.295 16.6506C15.1412 16.6537 14.9891 16.6829 14.8451 16.7374V16.2642C15.6476 16.1211 16.4353 15.9056 17.1988 15.6201L17.7061 15.4362L18.2428 15.7059L18.2901 15.7259C19.417 16.1615 20.6123 16.3923 21.8202 16.4076C23.1648 16.3809 24.4945 16.1151 25.746 15.6224L26.9913 15.1662V13.0518C26.9913 11.3128 25.5813 9.90279 23.8424 9.90279ZM22.0429 6.75383C22.7881 6.75383 23.3925 7.35802 23.3925 8.10338C23.3925 8.84874 22.7881 9.45294 22.0429 9.45294C21.2974 9.45294 20.6934 8.84874 20.6934 8.10338C20.6934 7.35802 21.2974 6.75383 22.0429 6.75383ZM13.4956 6.75383C14.2409 6.75383 14.8451 7.35802 14.8451 8.10338C14.8451 8.84874 14.2409 9.45294 13.4956 9.45294C12.75 9.45294 12.146 8.84874 12.146 8.10338C12.146 7.35802 12.75 6.75383 13.4956 6.75383ZM4.94838 6.75383C5.69374 6.75383 6.29793 7.35802 6.29793 8.10338C6.29793 8.84874 5.69374 9.45294 4.94838 9.45294C4.20284 9.45294 3.59882 8.84874 3.59882 8.10338C3.59882 7.35802 4.20284 6.75383 4.94838 6.75383ZM1.52939 14.8872L0.899705 14.5722V13.0518C0.900935 11.8103 1.90717 10.8041 3.14897 10.8025H6.74779C7.58034 10.8032 8.34398 11.2648 8.73107 12.0018C8.61013 12.3387 8.5479 12.694 8.54719 13.0518V14.7002L8.34345 14.7747C5.75491 15.7169 3.90505 15.7479 1.52939 14.8872ZM16.8933 14.7743C16.2276 15.0229 15.5427 15.2165 14.8451 15.3529V14.4013C14.8451 13.6561 14.2409 13.0518 13.4956 13.0518C12.75 13.0518 12.146 13.6561 12.146 14.4013V15.4204C11.4395 15.3154 10.746 15.1365 10.0768 14.8872L9.4469 14.5722V13.0518C9.44831 11.8103 10.4545 10.8041 11.6962 10.8025H15.295C16.5366 10.8041 17.5428 11.8103 17.5444 13.0518V14.5365L16.8933 14.7743ZM26.0916 14.5365L25.4378 14.7747C22.8498 15.7169 20.9994 15.7479 18.6222 14.8872L18.442 14.7972V13.0518C18.4415 12.694 18.3793 12.3387 18.2581 12.0018C18.6458 11.2643 19.4103 10.8025 20.2435 10.8025H23.8424C25.0838 10.8041 26.09 11.8103 26.0916 13.0518V14.5365Z" fill="#354BC0"/>
</g>
</svg>
