<svg width="28" height="27" viewBox="0 0 28 27" fill="none" xmlns="http://www.w3.org/2000/svg">
<g id="Group 1000002129">
<path id="Vector" d="M9.99241 10.3828C8.25814 10.3828 6.73436 11.5519 6.28694 13.2256C6.17764 13.6335 6.23382 14.0597 6.4452 14.4256C7.15073 15.6448 8.98671 15.3939 9.34427 14.0339C9.57203 13.2905 10.6502 13.4385 10.6662 14.2186C10.6126 15.2027 8.397 15.5093 8.4115 18.2877C8.41144 19.1594 9.12067 19.8687 9.99241 19.8687C10.8642 19.8687 11.5734 19.1594 11.5734 18.2877C11.5734 17.9554 11.7841 17.7568 12.1565 17.4345C15.1143 15.3728 13.9778 10.5041 9.99241 10.3828ZM11.4667 16.6375C11.0447 17.0028 10.5195 17.4575 10.5195 18.2876C10.5195 18.5782 10.283 18.8146 9.99241 18.8146C9.70183 18.8146 9.46542 18.5782 9.46542 18.2876C9.46542 16.9844 10.0462 16.4817 10.7814 15.8452C11.1997 15.4832 11.7201 15.0326 11.7201 14.2184C11.7201 13.2658 10.9451 12.4907 9.99241 12.4907C9.21521 12.4905 8.52728 13.0164 8.32481 13.7662C8.12529 14.4372 7.14694 14.182 7.30503 13.498C7.62945 12.2843 8.73454 11.4367 9.99236 11.4367C11.5262 11.4367 12.7741 12.6845 12.7741 14.2184C12.7741 15.5058 12.1972 16.0052 11.4667 16.6375Z" fill="#354BC0"/>
<path id="Vector_2" d="M9.99308 20.3906C9.12133 20.3906 8.41211 21.0998 8.41211 21.9716C8.49158 24.0661 11.4949 24.0655 11.574 21.9716C11.574 21.0998 10.8648 20.3906 9.99308 20.3906ZM9.99308 22.4986C9.70249 22.4986 9.46609 22.2622 9.46609 21.9716C9.49259 21.2734 10.4937 21.2736 10.5201 21.9716C10.5201 22.2622 10.2837 22.4986 9.99308 22.4986Z" fill="#354BC0"/>
<path id="Vector_3" d="M26.0322 11.032C28.8545 6.2279 25.2002 -0.0697169 19.6215 0.000583403C15.6117 0.000530704 12.3388 3.21601 12.2458 7.20389C3.78014 5.26225 -3.01064 14.5081 1.37149 22C1.11742 22.9469 0.863363 23.8939 0.609249 24.8423C0.490834 25.2866 0.615625 25.7445 0.943096 26.0672C1.26609 26.3855 1.7359 26.5077 2.1703 26.3868C3.11339 26.1341 4.05628 25.8811 4.99938 25.6281C12.495 30.0118 21.7373 23.2171 19.7961 14.7542C21.0212 14.7254 22.2162 14.3937 23.2756 13.7888C23.9369 13.9662 24.5981 14.1436 25.2595 14.3208C25.6234 14.4218 26.0168 14.3196 26.2873 14.0531C26.5617 13.7827 26.6663 13.3989 26.5669 13.0257C26.3888 12.3607 26.2105 11.6964 26.0322 11.032ZM10.0303 25.9284C8.37496 25.9284 6.75779 25.4732 5.35373 24.6121C5.27004 24.5607 5.17461 24.5343 5.07817 24.5343C4.00764 24.7698 2.95293 25.1025 1.88815 25.3712C1.71925 25.4126 1.58908 25.2682 1.62755 25.1143C1.90074 24.0948 2.17398 23.0763 2.44728 22.0578C2.4848 21.918 2.4632 21.769 2.38752 21.6456C-1.2857 15.8224 3.13547 7.92128 10.0305 8.01087C21.8977 8.46123 21.8975 25.4788 10.0303 25.9284ZM24.9568 11.0911C25.1542 11.8267 25.3515 12.5623 25.5501 13.2991C25.549 13.3014 25.5447 13.3053 25.5418 13.3053C24.8062 13.108 24.0703 12.9108 23.3347 12.7133C23.1948 12.6758 23.046 12.6974 22.9226 12.7731C21.8966 13.4028 20.7048 13.7254 19.4954 13.7009C18.4924 10.8047 16.1952 8.50755 13.2991 7.50453C13.4618 -0.958694 25.6153 -1.07695 25.9455 7.37837C25.9455 8.54676 25.6243 9.68806 25.0166 10.6789C24.9409 10.8023 24.9193 10.9513 24.9568 11.0911Z" fill="#354BC0"/>
<path id="Vector_4" d="M16.9872 6.85156C16.696 6.85135 16.46 7.08739 16.46 7.37855C16.4858 8.07665 17.4884 8.07681 17.5141 7.37855C17.5141 7.0875 17.2782 6.85156 16.9872 6.85156Z" fill="#354BC0"/>
<path id="Vector_5" d="M19.6209 6.85156C19.3298 6.8513 19.0938 7.08734 19.0938 7.37855C19.1196 8.07665 20.1222 8.07681 20.1479 7.37855C20.1479 7.0875 19.912 6.85156 19.6209 6.85156Z" fill="#354BC0"/>
<path id="Vector_6" d="M22.2567 6.85156C21.9655 6.8513 21.7295 7.08734 21.7295 7.37855C21.7554 8.07665 22.7579 8.07681 22.7837 7.37855C22.7837 7.0875 22.5477 6.85156 22.2567 6.85156Z" fill="#354BC0"/>
</g>
</svg>
