<svg width="15" height="16" viewBox="0 0 15 16" fill="none" xmlns="http://www.w3.org/2000/svg">
<g clip-path="url(#clip0_573_43225)">
<path d="M12.0057 1.24514C11.2675 0.40371 9.933 0.0429688 8.22582 0.0429688H3.27112C3.10221 0.042975 2.93885 0.103236 2.81039 0.212917C2.68194 0.322598 2.59683 0.474505 2.57035 0.641326L0.507307 13.7257C0.4663 13.9837 0.666088 14.2173 0.927598 14.2173H3.98646L4.75467 9.34469L4.73083 9.49727C4.78556 9.15285 5.08013 8.89881 5.42895 8.89881H6.88251C9.73804 8.89881 11.974 7.73897 12.6271 4.38379C12.6465 4.28456 12.6633 4.18798 12.6778 4.09362C12.5954 4.04996 12.5954 4.04996 12.6778 4.09362C12.8723 2.85351 12.6765 2.00938 12.0057 1.24514Z" fill="#27346A"/>
<path d="M5.92511 3.64689C6.00873 3.60707 6.1002 3.58644 6.19282 3.58649H10.0772C10.5372 3.58649 10.9662 3.61643 11.3583 3.67952C11.468 3.69702 11.5771 3.7179 11.6855 3.74215C11.8392 3.77605 11.9911 3.81755 12.1406 3.86649C12.3334 3.93086 12.5129 4.00583 12.6778 4.09362C12.8723 2.85303 12.6765 2.00938 12.0057 1.24514C11.267 0.40371 9.933 0.0429688 8.22582 0.0429688H3.2707C2.92182 0.0429688 2.62503 0.296955 2.57035 0.641326L0.507307 13.7252C0.4663 13.9836 0.666089 14.217 0.927175 14.217H3.98646L5.58026 4.10994C5.59593 4.01059 5.63551 3.91654 5.69558 3.83588C5.75565 3.75522 5.83442 3.69036 5.92511 3.64689Z" fill="#27346A"/>
<path d="M12.6261 4.38392C11.973 7.73862 9.73709 8.89894 6.88152 8.89894H5.42753C5.07871 8.89894 4.78409 9.15298 4.72989 9.49741L3.77418 15.5559C3.73847 15.7817 3.91309 15.9864 4.14154 15.9864H6.72009C6.86779 15.9863 7.01064 15.9336 7.12294 15.8376C7.23523 15.7417 7.30961 15.6088 7.33269 15.4629L7.35781 15.3315L7.84379 12.2515L7.87511 12.0812C7.89819 11.9354 7.97256 11.8025 8.08484 11.7065C8.19713 11.6106 8.33996 11.5579 8.48766 11.5578H8.87357C11.3714 11.5578 13.3273 10.543 13.8988 7.60813C14.1374 6.38164 14.014 5.35764 13.3829 4.63839C13.1915 4.42053 12.9537 4.24061 12.6768 4.09375C12.6618 4.18858 12.6455 4.28469 12.6261 4.38392Z" fill="#2790C3"/>
<path d="M11.9935 3.82059C11.8916 3.79085 11.7888 3.76452 11.6852 3.74165C11.5768 3.7178 11.4676 3.69706 11.358 3.67945C10.9655 3.61593 10.5368 3.58594 10.0764 3.58594H6.19246C6.09976 3.58573 6.00823 3.60654 5.92475 3.64681C5.83395 3.69015 5.7551 3.75497 5.695 3.83566C5.6349 3.91634 5.59538 4.01046 5.57985 4.10986L4.75431 9.34419L4.73047 9.49677C4.78477 9.15235 5.07934 8.89831 5.42822 8.89831H6.8822C9.73773 8.89831 11.9736 7.73847 12.6267 4.38329C12.6462 4.28406 12.6625 4.1879 12.6775 4.09312C12.5121 4.00581 12.3331 3.93036 12.1403 3.86642C12.0916 3.85029 12.0427 3.83501 11.9935 3.82059" fill="#1F264F"/>
</g>
<defs>
<clipPath id="clip0_573_43225">
<rect width="13.5629" height="16" fill="white" transform="translate(0.5)"/>
</clipPath>
</defs>
</svg>
