<svg width="88" height="88" viewBox="0 0 88 88" fill="none" xmlns="http://www.w3.org/2000/svg">
<path d="M44 49.5C58.685 49.5 88 56.87 88 71.5V88H0V71.5C0 56.87 29.315 49.5 44 49.5ZM44 0C49.8348 0 55.4306 2.31785 59.5564 6.44365C63.6822 10.5694 66 16.1652 66 22C66 27.8348 63.6822 33.4306 59.5564 37.5564C55.4306 41.6822 49.8348 44 44 44C38.1652 44 32.5694 41.6822 28.4436 37.5564C24.3178 33.4306 22 27.8348 22 22C22 16.1652 24.3178 10.5694 28.4436 6.44365C32.5694 2.31785 38.1652 0 44 0ZM44 59.95C27.665 59.95 10.45 67.98 10.45 71.5V77.55H77.55V71.5C77.55 67.98 60.335 59.95 44 59.95ZM44 10.45C40.9367 10.45 37.999 11.6669 35.8329 13.8329C33.6669 15.999 32.45 18.9367 32.45 22C32.45 25.0633 33.6669 28.001 35.8329 30.1671C37.999 32.3331 40.9367 33.55 44 33.55C47.0633 33.55 50.001 32.3331 52.1671 30.1671C54.3331 28.001 55.55 25.0633 55.55 22C55.55 18.9367 54.3331 15.999 52.1671 13.8329C50.001 11.6669 47.0633 10.45 44 10.45Z" fill="#354BC0"/>
</svg>
