<svg width="434" height="281" viewBox="0 0 434 281" fill="none" xmlns="http://www.w3.org/2000/svg">
<path fill-rule="evenodd" clip-rule="evenodd" d="M175.23 0C198.632 0 217.601 10.7904 217.601 24.1041C217.601 37.4156 198.63 48.2081 175.23 48.2081C151.828 48.2081 132.859 37.4177 132.859 24.1041C132.859 10.7904 151.83 0 175.23 0Z" fill="#CEDFFF"/>
<path fill-rule="evenodd" clip-rule="evenodd" d="M313.749 235.375C311.327 235.375 309.345 237.358 309.345 239.779V278.954H318.151V239.779C318.153 237.358 316.17 235.375 313.749 235.375Z" fill="#BCD6FF"/>
<path d="M318.151 260.18H309.345V266.187H318.151V260.18Z" fill="#8BA0DD"/>
<path fill-rule="evenodd" clip-rule="evenodd" d="M379.866 235.375C377.444 235.375 375.462 237.358 375.462 239.779V278.954H384.268V239.779C384.27 237.358 382.289 235.375 379.866 235.375Z" fill="#BCD6FF"/>
<path d="M384.271 260.18H375.465V266.187H384.271V260.18Z" fill="#8BA0DD"/>
<path fill-rule="evenodd" clip-rule="evenodd" d="M263.867 235.375C261.445 235.375 259.463 237.358 259.463 239.779V278.954H268.269V239.779C268.271 237.358 266.288 235.375 263.867 235.375Z" fill="#BCD6FF"/>
<path d="M268.269 260.18H259.463V266.187H268.269V260.18Z" fill="#8BA0DD"/>
<path fill-rule="evenodd" clip-rule="evenodd" d="M329.984 235.375C327.563 235.375 325.58 237.358 325.58 239.779V278.954H334.386V239.779C334.388 237.358 332.405 235.375 329.984 235.375Z" fill="#BCD6FF"/>
<path d="M334.386 260.18H325.58V266.187H334.386V260.18Z" fill="#8BA0DD"/>
<path fill-rule="evenodd" clip-rule="evenodd" d="M406.169 117.344L393.377 206.873L295.797 206.922C295.599 206.922 295.402 206.873 295.201 206.873C293.106 206.873 291.709 204.458 292.033 202.272L302.368 131.66C302.98 127.627 305.048 117.346 319.061 117.346H406.169V117.344Z" fill="#AEC2FD"/>
<path fill-rule="evenodd" clip-rule="evenodd" d="M313.617 198.305H399.701C405.203 198.305 409.705 204.452 409.705 211.964V247.005C409.705 254.517 405.203 260.664 399.701 260.664H313.617C308.115 260.664 303.613 254.517 303.613 247.005V211.964C303.613 204.449 308.115 198.305 313.617 198.305Z" fill="#D0E0FF"/>
<path fill-rule="evenodd" clip-rule="evenodd" d="M406.169 117.339C411.996 117.988 416.103 123.272 415.293 129.082L405.444 197.484C404.634 203.294 399.204 207.515 393.377 206.869C387.55 206.22 383.443 200.936 384.253 195.126L394.102 126.724C394.91 120.914 400.34 116.69 406.169 117.339Z" fill="#D0E0FF"/>
<path fill-rule="evenodd" clip-rule="evenodd" d="M334.45 198.305H399.7C405.202 198.305 409.703 204.452 409.703 211.964V212.411H334.45V198.305Z" fill="#DDEAFF"/>
<path fill-rule="evenodd" clip-rule="evenodd" d="M249.723 198.305H335.806C341.309 198.305 345.81 204.452 345.81 211.964V247.005C345.81 254.517 341.309 260.664 335.806 260.664H249.723C244.22 260.664 239.719 254.517 239.719 247.005V211.964C239.721 204.449 244.222 198.305 249.723 198.305Z" fill="#AEC2FD"/>
<path fill-rule="evenodd" clip-rule="evenodd" d="M249.722 198.305H335.806C341.308 198.305 345.81 204.452 345.81 211.964V212.411H239.721V211.964C239.721 204.449 244.222 198.305 249.722 198.305Z" fill="#9DB5FF"/>
<path fill-rule="evenodd" clip-rule="evenodd" d="M313.832 106.585C310.363 114.199 319.44 128.253 303.779 151.682C299.924 157.45 295.951 165.755 289.403 172.604C285.088 177.116 278.123 175.922 278.583 173.577C279.253 170.159 286.049 158.843 294.931 139.035C297.83 132.568 298.398 100.389 313.183 90.6887C314.606 89.7728 317.99 100.324 313.832 106.585Z" fill="#F7AAAC"/>
<path fill-rule="evenodd" clip-rule="evenodd" d="M309.409 127.455C305.2 126.617 299.799 125.968 296.86 123.03C299.719 108.662 304.477 91.6423 315.678 87.7578L317.667 95.3868L315.432 109.479L309.409 127.455Z" fill="#6294D8"/>
<path fill-rule="evenodd" clip-rule="evenodd" d="M267.783 269.834L265.307 258.98L274.636 256.484L277.058 267.631L267.783 269.834Z" fill="#F7AAAC"/>
<path fill-rule="evenodd" clip-rule="evenodd" d="M324.415 170.055L302.338 172.279C302.338 172.279 253.125 166.285 243.257 183.226C233.388 200.168 264.816 260.899 264.816 260.899L277.328 260.653C274.095 240.702 273.906 217.353 264.744 198.957L320.999 198.955L324.415 170.055Z" fill="#355298"/>
<path fill-rule="evenodd" clip-rule="evenodd" d="M266.377 198.957L317.534 198.955L320.56 173.343L316.283 173.102C316.283 173.102 282.489 180.353 277.296 181.39C264.602 183.922 265.007 194.174 266.377 198.957Z" fill="#1D3975"/>
<path fill-rule="evenodd" clip-rule="evenodd" d="M288.381 266.699L287.459 256.969L297.221 257.204L297.128 268.344L288.381 266.699Z" fill="#F7AAAC"/>
<path fill-rule="evenodd" clip-rule="evenodd" d="M286.641 267.015C283.984 271.254 281.141 275.299 284.19 278.955H302.501C302.531 278.872 302.561 278.783 302.59 278.688C302.768 278.096 303.623 277.85 303.051 275.687C301.988 271.671 298.871 265.497 297.798 265.179C296.202 264.706 294.103 265.603 291.194 265.382C288.435 265.172 288.202 264.526 286.641 267.015Z" fill="#355298"/>
<path fill-rule="evenodd" clip-rule="evenodd" d="M282.825 275.602V275.61C282.785 276.961 282.575 278.674 284.19 278.962H302.502C303.57 278.689 304.092 276.916 303.051 275.693L282.825 275.602Z" fill="#6294D8"/>
<path fill-rule="evenodd" clip-rule="evenodd" d="M352.715 168.8C352.715 168.8 356.142 193.932 344.798 198.964C333.454 203.995 297.673 201.364 297.673 201.364C304.81 226.178 297.673 238.449 298.928 260.598L284.794 260.67C284.794 260.67 278.446 221.191 274.945 198.815C273.179 187.526 272.81 178.549 288.248 175.468C293.441 174.431 324.124 167.18 324.124 167.18L352.715 168.8Z" fill="#355298"/>
<path fill-rule="evenodd" clip-rule="evenodd" d="M363.402 95.5403C368.444 116.114 353.419 135.78 354.882 176.73C345.797 179.5 297.095 172.999 297.135 171.807C298.988 158.107 300.262 109.187 311.617 90.6211C314.437 86.0115 326.591 82.7653 338.448 83.8869C347.991 84.7902 358.101 88.9651 363.402 95.5403Z" fill="#7BABEA"/>
<path d="M322.667 84.8491C328.58 82.7012 336.04 82.5633 343.65 84.6858C346.928 94.0641 335.804 100.149 330.593 100.149C319.083 100.149 319.302 89.2912 322.667 84.8491Z" fill="#6294D8"/>
<path fill-rule="evenodd" clip-rule="evenodd" d="M321.588 169.061C331.004 159.842 343.529 147.414 348.573 132.364L352.994 116.816L357.271 116.281C357.271 116.281 362.421 128.185 362.324 128.914C362.226 129.644 357.235 139.98 357.513 140.042C357.791 140.103 355.588 154.891 353.985 154.986C352.384 155.084 321.588 169.061 321.588 169.061Z" fill="#6294D8"/>
<path fill-rule="evenodd" clip-rule="evenodd" d="M322.73 82.9828L324.272 88.0653L323.737 88.9283C321.587 103.728 347.432 91.5024 339.212 83.9942L337.74 83.1376L335.111 75.0697C335.531 74.9065 338.071 72.1288 338.904 71.5457C339.737 70.9605 340.52 68.7363 340 66.8216C339.481 64.9069 336.767 66.4611 336.767 66.4611C338.73 60.4903 341.449 55.253 334.863 52.5856C328.275 49.914 315.555 51.2307 315.555 51.2307L307.589 51.0674C309.3 53.2429 311.168 60.1192 310.996 65.8632C311.545 76.7914 315.604 81.8591 322.73 82.9828Z" fill="#F7AAAC"/>
<path fill-rule="evenodd" clip-rule="evenodd" d="M332.058 77.1406C331.013 81.9305 329.622 86.996 324.272 88.0519L322.73 82.9694C325.141 82.5963 327.327 81.6888 332.058 77.1406Z" fill="#E16E73"/>
<path fill-rule="evenodd" clip-rule="evenodd" d="M359.535 97.6196C374.142 104.144 369.143 131.95 366.541 143.112C364.463 151.608 345.795 170.106 325.332 173.5C324.117 173.702 321.668 176.269 320.184 176.532C314.378 177.565 307.92 177.19 302.102 176.719C302.748 174.792 305.537 170.727 309.798 169.616C312.684 168.863 316.967 169.245 320.672 168.301C333.733 164.97 353.208 138.122 353.285 137.459C353.836 124.065 348.486 103.039 355.82 94.1762C356.493 93.3662 358.448 97.134 359.535 97.6196Z" fill="#F7AAAC"/>
<path fill-rule="evenodd" clip-rule="evenodd" d="M265.713 264.312C265.713 264.312 252.451 269.76 248.028 271.927C244.593 273.608 242.648 277.147 245.468 278.951H279.822C279.852 278.869 279.882 278.78 279.911 278.682C280.422 276.984 281.756 264.857 278.183 265.127C275.965 265.294 270.675 266.87 265.713 264.312Z" fill="#355298"/>
<path fill-rule="evenodd" clip-rule="evenodd" d="M244.103 275.586L244.101 275.594C243.675 276.896 243.985 278.652 245.477 278.957H279.988C280.601 278.535 280.902 276.695 280.541 275.677L244.103 275.586Z" fill="#6294D8"/>
<path fill-rule="evenodd" clip-rule="evenodd" d="M352.042 132.463C352.553 135.454 365.839 137.295 369.728 133.531C372.274 131.067 371.274 95.8294 358.424 91.805C346.9 88.1961 350.6 117.576 351.771 129.314C351.9 130.597 351.908 131.678 352.042 132.463Z" fill="#7BABEA"/>
<path fill-rule="evenodd" clip-rule="evenodd" d="M340.338 51.1763C340.302 46.7321 337.631 42.89 332.65 41.0326C322.328 37.1842 316.351 43.0045 313.518 44.7283C311.561 45.92 310.109 46.3165 308.162 47.4127C303.29 50.1543 306.277 61.1461 311.165 63.523C311.65 63.7584 310.658 58.606 311.177 58.7904C311.739 59.0385 312.339 59.2357 312.973 59.3778C320.095 60.58 325.975 54.624 330.875 57.6985C333.301 59.223 334.073 62.2805 333.558 67.5411C333.407 69.0911 332.945 70.3442 334.915 68.5461C335.82 67.7213 337.347 66.4852 338.093 66.7778C339.757 67.4287 339.8 69.8926 338.973 70.9527C338.604 71.4256 337.862 72.191 337.862 72.191C347.022 67.2612 344.982 52.8853 340.338 51.1763Z" fill="#355298"/>
<path fill-rule="evenodd" clip-rule="evenodd" d="M19.6855 117.344L32.4776 206.873L137.619 206.922C137.816 206.922 138.013 206.873 138.215 206.873C140.31 206.873 141.707 204.458 141.38 202.272L131.048 131.658C130.435 127.625 128.368 117.344 114.355 117.344H19.6855Z" fill="#AEC2FD"/>
<path fill-rule="evenodd" clip-rule="evenodd" d="M126.089 237.258C123.667 237.258 121.685 239.238 121.685 241.662V278.954H130.429C130.463 278.954 130.49 278.927 130.49 278.893V241.662C130.492 239.24 128.51 237.258 126.089 237.258Z" fill="#BCD6FF"/>
<path d="M130.49 260.992H121.685V266.738H130.49V260.992Z" fill="#8BA0DD"/>
<path fill-rule="evenodd" clip-rule="evenodd" d="M93.4645 246.742C91.0431 246.742 89.0605 248.723 89.0605 251.146V278.954H97.8663V251.146C97.8684 248.723 95.8859 246.742 93.4645 246.742Z" fill="#BCD6FF"/>
<path fill-rule="evenodd" clip-rule="evenodd" d="M184.115 237.258C181.693 237.258 179.711 239.238 179.711 241.662V278.954H188.517V241.662C188.519 239.24 186.536 237.258 184.115 237.258Z" fill="#BCD6FF"/>
<path fill-rule="evenodd" clip-rule="evenodd" d="M35.3073 237.258C32.8858 237.258 30.9033 239.238 30.9033 241.662V278.954H39.7091V241.662C39.7112 239.24 37.7287 237.258 35.3073 237.258Z" fill="#BCD6FF"/>
<path fill-rule="evenodd" clip-rule="evenodd" d="M186.533 225.453H86.5547C82.9395 225.453 79.9795 228.411 79.9795 232.028V260.994H193.108V232.028C193.108 228.411 190.15 225.453 186.533 225.453Z" fill="#AEC2FD"/>
<path fill-rule="evenodd" clip-rule="evenodd" d="M194.032 165.547H146.789C138.467 165.547 131.656 172.357 131.656 180.68V215.943C131.656 224.266 138.467 231.076 146.789 231.076H194.032C202.355 231.076 209.165 224.266 209.165 215.943V180.68C209.163 172.355 202.355 165.547 194.032 165.547Z" fill="#D0E0FF"/>
<path fill-rule="evenodd" clip-rule="evenodd" d="M197.651 178.742C191.315 178.742 186.133 183.924 186.133 190.258V260.99H197.651C203.984 260.99 209.166 255.808 209.166 249.475V190.258C209.166 183.924 203.984 178.742 197.651 178.742Z" fill="#AEC2FD"/>
<path fill-rule="evenodd" clip-rule="evenodd" d="M176.13 198.305H94.6454C89.1431 198.305 84.6416 202.806 84.6416 208.308V233.971C84.6416 239.473 89.1431 243.975 94.6454 243.975H176.128C181.63 243.975 186.132 239.473 186.132 233.971V208.308C186.132 202.806 181.63 198.305 176.13 198.305Z" fill="#D0E0FF"/>
<path fill-rule="evenodd" clip-rule="evenodd" d="M178.359 198.305H88.8526C86.5372 198.305 84.6416 202.806 84.6416 208.311H186.132C186.132 202.806 182.165 198.305 178.359 198.305Z" fill="#DDEAFF"/>
<path fill-rule="evenodd" clip-rule="evenodd" d="M19.6838 117.339C13.8571 117.988 9.74997 123.272 10.5599 129.082L16.7386 173.437C17.5486 179.247 22.9788 183.468 28.8055 182.822C34.6322 182.173 38.7393 176.889 37.9293 171.079L31.7506 126.724C30.9428 120.914 25.5126 116.69 19.6838 117.339Z" fill="#D0E0FF"/>
<path fill-rule="evenodd" clip-rule="evenodd" d="M73.4719 165.922H17.9169C9.17892 165.922 2.03125 173.07 2.03125 181.807V245.102C2.03125 253.838 9.17892 260.987 17.9169 260.987H73.4719C82.2099 260.987 89.3575 253.84 89.3575 245.102V181.807C89.3575 173.07 82.2099 165.922 73.4719 165.922Z" fill="#D0E0FF"/>
<path fill-rule="evenodd" clip-rule="evenodd" d="M66.3243 181.807H89.3575C89.3575 173.871 83.4609 167.247 75.8319 166.1C70.4462 167.058 66.3243 171.791 66.3243 177.44V181.807ZM50.4387 165.922H17.9169C9.17892 165.922 2.03125 173.07 2.03125 181.807H66.3243C66.3243 173.07 59.1766 165.922 50.4387 165.922Z" fill="#DDEAFF"/>
<path fill-rule="evenodd" clip-rule="evenodd" d="M2.03125 245.102C2.03125 253.837 9.17892 260.987 17.9169 260.987H73.4719C76.4213 260.987 79.1905 260.171 81.5632 258.757V245.102H2.03125Z" fill="#D0E0FF"/>
<path d="M97.8663 260.992H89.0605V266.738H97.8663V260.992Z" fill="#8BA0DD"/>
<path d="M39.7091 260.992H30.9033V266.738H39.7091V260.992Z" fill="#8BA0DD"/>
<path d="M188.517 260.992H179.711V266.738H188.517V260.992Z" fill="#8BA0DD"/>
<path fill-rule="evenodd" clip-rule="evenodd" d="M197.65 165.922C196.917 165.922 196.198 165.992 195.502 166.125C194.705 166.022 193.791 165.922 193.282 165.922H170.247C178.985 165.922 186.133 173.07 186.133 181.807V219.554C186.133 225.887 191.315 231.069 197.648 231.069H208.869C209.032 231.069 209.164 230.936 209.164 230.775V177.437C209.166 171.104 203.984 165.922 197.65 165.922Z" fill="#AEC2FD"/>
<path d="M129.621 163.195C141.55 166.331 148.114 151.425 164.422 162.506L194.393 227.113C194.694 227.272 194.991 227.427 195.281 227.577C195.51 227.698 195.735 227.813 195.96 227.925C196.5 228.199 197.026 228.451 197.539 228.676C197.771 228.78 198.002 228.877 198.231 228.968C201.948 230.461 205.389 229.585 208.251 228.966C210.471 228.485 212.115 227.982 214.748 229.978C214.831 230.039 214.903 230.107 214.969 230.179C215.713 230.989 215.473 232.35 214.42 232.832L190.559 243.516C189.387 244.052 188.925 243.289 188.267 242.244C188.176 242.095 188.095 241.936 188.034 241.769C177.759 216.255 157.329 201.181 151.547 182.143C151.547 182.143 133.863 192.954 122.727 193.098C106.611 193.308 95.1312 182.806 94.8788 182.149C94.4527 181.042 129.621 163.195 129.621 163.195Z" fill="#F7AAAC"/>
<path d="M146.753 164.172C150.902 165.894 126.891 184.811 130.714 183.804C136.878 183.363 148.201 173.3 155.058 178.346C159.808 181.841 161.122 196.545 170.537 211.54C170.32 211.277 158.889 198.473 158.697 198.248C155.421 194.402 155.476 195.339 154.1 186.732C154.1 186.732 118.751 197.245 109.939 195.368C95.9196 192.385 105.911 176.398 105.743 175.687C105.47 174.534 146.753 164.172 146.753 164.172Z" fill="#F3979A"/>
<path d="M129.591 169.463C135.163 175.082 126.099 174.579 131.516 175.192C134.966 175.582 106.774 194.039 112.111 196.764C113.676 197.563 147.298 180.122 149.667 180.556C155.294 181.591 158.746 191.476 158.659 198.306C158.451 214.579 152.957 245.369 150.521 263.021C150.699 263.309 150.875 263.593 151.051 263.871C151.187 264.091 151.323 264.303 151.46 264.515C151.787 265.026 152.111 265.51 152.438 265.964C152.586 266.169 152.733 266.373 152.885 266.566C155.33 269.738 158.74 270.73 161.521 271.65C163.678 272.363 165.349 272.761 166.606 275.821C166.646 275.917 166.674 276.012 166.695 276.109C166.926 277.184 166.027 278.236 164.874 278.115L140.691 275.41C139.408 275.276 138.467 274.212 138.431 272.978C138.427 272.802 138.437 272.626 138.471 272.45C137.795 269.057 137.793 266.254 139.334 260.97C142.231 240.761 136.052 221.791 138.84 199.442C139.069 197.597 125.7 199.675 112.359 198.708C103.84 198.091 96.3675 196.734 89.082 190.698C89.082 190.698 109.927 160.091 110.122 158.918C110.317 157.748 129.591 169.463 129.591 169.463Z" fill="#F7AAAC"/>
<path fill-rule="evenodd" clip-rule="evenodd" d="M160.791 270.747C160.791 270.747 171.565 274.031 170.933 276.794C169.658 282.373 137.635 280.846 137.488 278.812C137.359 277.053 136.157 268.039 137.796 266.258C139.013 264.933 150.588 273.473 160.791 270.747Z" fill="#355298"/>
<path fill-rule="evenodd" clip-rule="evenodd" d="M121.949 150.211C122.891 162.443 153.595 145.665 164.424 162.506C144.366 155.815 120.092 200.974 106.664 201.228C86.3085 201.614 61.7995 199.409 76.6291 151.277C81.525 139.836 120.141 142.887 121.949 150.211Z" fill="#355298"/>
<path d="M112.912 102.897C121.729 122.245 130.405 134.553 139.41 134.223C155.381 133.635 160.139 112.449 165.921 101.132L165.985 101.147C166.343 100.721 166.987 99.4828 167.31 99.0842C174.154 90.6834 173.995 89.2289 173.066 86.4618C172.774 85.5925 172.547 82.1745 172.303 81.6359C169.801 80.0563 168.058 87.3481 163.122 89.7293C162.999 89.2055 163.02 88.597 162.662 87.6916C162.492 87.2591 162.039 86.729 161.761 86.589C161.445 86.4321 161.25 86.3007 161.044 86.9071C160.646 88.0818 160.866 93.3551 161.237 94.7184C157.236 103.446 146.732 113.513 140.928 118.786C130.791 112.898 127.174 89.5851 112.473 85.777C110.976 84.8122 108.534 96.3023 112.912 102.897Z" fill="#F7AAAC"/>
<path fill-rule="evenodd" clip-rule="evenodd" d="M69.4946 90.6461C64.5033 111.012 78.8516 114.218 74.3247 155.329C89.2986 157.409 119.318 157.613 125.003 154.345C122.944 139.219 125.559 125.471 126.154 117.214C127.053 104.789 121.856 94.9461 114.938 87.5843C108.327 80.5469 77.9314 78.0682 69.4946 90.6461Z" fill="#F49123"/>
<path fill-rule="evenodd" clip-rule="evenodd" d="M70.932 90.6365C56.4734 97.0929 64.0006 129.468 66.5769 140.518C68.1735 147.046 81.0164 160.737 97.642 165.014C102.703 166.316 115.801 166.019 119.045 165.881C118.404 163.973 114.297 159.584 110.076 158.485C107.217 157.739 106.278 159.323 102.674 158.155C89.3705 153.842 78.8494 135.272 78.7752 134.617C78.2303 121.358 82.0617 101.295 74.8017 92.5215C74.1359 91.7179 72.0071 90.1573 70.932 90.6365Z" fill="#F7AAAC"/>
<path fill-rule="evenodd" clip-rule="evenodd" d="M207.161 228.554C207.161 228.554 218.111 225.914 218.969 228.615C220.704 234.069 192.338 249.007 191.178 247.329C190.175 245.879 184.563 238.721 185.069 236.357C185.447 234.599 199.753 236.081 207.161 228.554Z" fill="#355298"/>
<path fill-rule="evenodd" clip-rule="evenodd" d="M113.586 46.3281C112.795 54.8922 112.224 64.1666 114.966 69.2342C115.15 69.5035 115.322 69.7834 115.477 70.0738L115.479 70.0781C116.037 70.8881 116.278 71.5962 116.283 72.2217C116.357 72.5377 116.414 72.86 116.452 73.1907C117.031 78.0421 113.567 82.4418 108.717 83.0206C103.866 83.5995 96.8073 82.2107 96.4956 79.5878C96.184 76.965 98.8217 74.499 98.8259 74.1131L93.2197 72.9427L113.586 46.3281Z" fill="#355298"/>
<path fill-rule="evenodd" clip-rule="evenodd" d="M101.649 78.8796L101.113 83.7755L101.747 84.4709C104.147 87.8083 100.349 93.546 97.205 92.9502C89.1414 92.3183 83.8299 84.9586 86.6966 81.7018L87.8925 80.6692L89.0099 73.7865C88.5985 73.7102 85.8103 71.6132 84.9494 71.2252C84.0907 70.835 82.9945 68.9415 83.1408 67.1074C83.2871 65.2733 86.0266 66.2254 86.0266 66.2254C83.2129 61.1196 79.8394 56.8132 85.3862 53.251C90.933 49.6888 102.752 48.7092 102.752 48.7092L109.984 47.1953C108.797 49.4726 108.954 57.5935 110.095 62.7989C111.712 70.1968 109.509 76.28 101.649 78.8796Z" fill="#F7AAAC"/>
<path fill-rule="evenodd" clip-rule="evenodd" d="M92.1494 75.1797C92.1494 75.1797 95.2048 82.3995 98.3451 83.4193C101.483 84.4392 99.8972 83.7798 101.114 83.7904L101.649 78.8945C99.3862 78.9666 97.2382 78.515 92.1494 75.1797Z" fill="#E16E73"/>
<path fill-rule="evenodd" clip-rule="evenodd" d="M113.185 53.9461C120.377 47.0911 110.591 30.2365 90.4714 38.0309C76.8461 43.2278 81.055 56.2213 66.8868 65.0483C60.5873 67.6139 61.0601 75.5715 66.6833 77.0748C62.2242 87.7444 80.7539 89.9178 88.9257 80.2702C93.4802 74.893 86.3113 69.5349 87.2273 66.9438C87.628 65.8116 90.2721 67.1962 90.2869 66.4964C90.6113 50.1444 104.48 62.2261 113.185 53.9461Z" fill="#355298"/>
<path fill-rule="evenodd" clip-rule="evenodd" d="M77.8408 165.922C77.1072 165.922 76.3884 165.992 75.6929 166.125C74.8956 166.022 73.9818 165.922 73.4729 165.922H50.4375C59.1754 165.922 66.3231 173.07 66.3231 181.807V249.472C66.3231 255.805 71.5052 260.987 77.8387 260.987H89.0595C89.2228 260.987 89.3543 260.854 89.3543 260.693V177.437C89.3564 171.104 84.1743 165.922 77.8408 165.922Z" fill="#AEC2FD"/>
<path fill-rule="evenodd" clip-rule="evenodd" d="M428.282 278.477H0.525844C0.237477 278.477 0 278.714 0 279.002C0 279.291 0.237477 279.528 0.525844 279.528H428.284C428.572 279.528 428.81 279.291 428.81 279.002C428.81 278.714 428.572 278.477 428.282 278.477Z" fill="#0F4884"/>
<path d="M369.046 58.0293C371.171 53.4952 355.417 41.6284 333.859 31.5242C312.3 21.4199 293.101 16.9045 290.976 21.4386C288.851 25.9728 304.604 37.8395 326.163 47.9438C347.721 58.048 366.921 62.5634 369.046 58.0293Z" stroke="#7BA9E3" stroke-width="4.252" stroke-miterlimit="2.6131"/>
<path d="M327.802 48.3155C351.61 48.1831 370.888 44.0166 370.861 39.0093C370.833 34.002 351.51 30.05 327.701 30.1823C303.893 30.3146 284.615 34.4811 284.643 39.4885C284.671 44.4958 303.994 48.4478 327.802 48.3155Z" stroke="#7BA9E3" stroke-width="4.252" stroke-miterlimit="2.6131"/>
<path fill-rule="evenodd" clip-rule="evenodd" d="M156.09 15.0312H171.446C172.224 15.0312 172.862 15.6695 172.862 16.4476C172.862 17.2258 172.224 17.864 171.446 17.864H156.09C155.312 17.864 154.674 17.2258 154.674 16.4476C154.674 15.6695 155.31 15.0312 156.09 15.0312Z" fill="white"/>
<path fill-rule="evenodd" clip-rule="evenodd" d="M156.09 21.4531H196.16C196.939 21.4531 197.577 22.0913 197.577 22.8695C197.577 23.6477 196.939 24.2859 196.16 24.2859H156.09C155.312 24.2859 154.674 23.6477 154.674 22.8695C154.674 22.0913 155.31 21.4531 156.09 21.4531Z" fill="white"/>
<path fill-rule="evenodd" clip-rule="evenodd" d="M156.09 27.6562H196.16C196.939 27.6562 197.577 28.2945 197.577 29.0726C197.577 29.8508 196.939 30.489 196.16 30.489H156.09C155.312 30.489 154.674 29.8508 154.674 29.0726C154.674 28.2945 155.31 27.6562 156.09 27.6562Z" fill="white"/>
<path fill-rule="evenodd" clip-rule="evenodd" d="M153.458 41.9766L148.67 55.9708L162.552 45.7847L153.458 41.9766Z" fill="#D0E0FF"/>
<path fill-rule="evenodd" clip-rule="evenodd" d="M243.919 48.2109C220.516 48.2109 201.548 59.0014 201.548 72.315C201.548 85.6265 220.519 96.419 243.919 96.419C267.321 96.419 286.289 85.6286 286.289 72.315C286.289 59.0014 267.321 48.2109 243.919 48.2109Z" fill="#CEDFFF"/>
<path fill-rule="evenodd" clip-rule="evenodd" d="M222.991 63.2344H238.346C239.124 63.2344 239.763 63.8726 239.763 64.6508C239.763 65.4289 239.124 66.0671 238.346 66.0671H222.991C222.212 66.0671 221.574 65.4289 221.574 64.6508C221.574 63.8726 222.21 63.2344 222.991 63.2344Z" fill="white"/>
<path fill-rule="evenodd" clip-rule="evenodd" d="M222.991 69.6562H263.061C263.839 69.6562 264.477 70.2945 264.477 71.0726C264.477 71.8508 263.839 72.489 263.061 72.489H222.991C222.212 72.489 221.574 71.8508 221.574 71.0726C221.574 70.2945 222.21 69.6562 222.991 69.6562Z" fill="white"/>
<path fill-rule="evenodd" clip-rule="evenodd" d="M222.991 75.8594H263.061C263.839 75.8594 264.477 76.4976 264.477 77.2758C264.477 78.0539 263.839 78.6921 263.061 78.6921H222.991C222.212 78.6921 221.574 78.0539 221.574 77.2758C221.574 76.4955 222.21 75.8594 222.991 75.8594Z" fill="white"/>
<path fill-rule="evenodd" clip-rule="evenodd" d="M265.696 90.1875L270.481 104.182L256.602 93.9956L265.696 90.1875Z" fill="#D0E0FF"/>
<path fill-rule="evenodd" clip-rule="evenodd" d="M412.371 201.219L412.846 249.153C418.853 242.349 420.785 225.74 420.367 216.74C419.905 206.806 416.574 204.633 412.371 201.219Z" fill="#9DC792"/>
<path fill-rule="evenodd" clip-rule="evenodd" d="M412.371 201.219L412.846 249.153C406.706 242.44 404.445 225.863 404.685 216.856C404.946 206.918 408.237 204.694 412.371 201.219Z" fill="#71A466"/>
<path fill-rule="evenodd" clip-rule="evenodd" d="M431.595 211.953L413.829 250.471C421.214 246.756 429.049 234.013 432.123 226.685C435.514 218.598 433.669 215.897 431.595 211.953Z" fill="#9DC792"/>
<path fill-rule="evenodd" clip-rule="evenodd" d="M431.596 211.953L413.83 250.471C411.453 243.326 415.921 229.401 419.523 222.258C423.494 214.377 426.97 213.543 431.596 211.953Z" fill="#71A466"/>
<path fill-rule="evenodd" clip-rule="evenodd" d="M393.234 211.953L411.001 250.471C403.616 246.756 395.781 234.013 392.706 226.685C389.316 218.598 391.163 215.897 393.234 211.953Z" fill="#9DC792"/>
<path fill-rule="evenodd" clip-rule="evenodd" d="M393.234 211.953L411.001 250.471C413.378 243.326 408.91 229.401 405.308 222.258C401.338 214.377 397.861 213.543 393.234 211.953Z" fill="#71A466"/>
<path fill-rule="evenodd" clip-rule="evenodd" d="M396.425 247.594H429.345V263.036C429.345 271.53 422.395 278.479 413.903 278.479H411.869C403.375 278.479 396.427 271.528 396.427 263.036V247.594H396.425Z" fill="#D0E0FF"/>
<path fill-rule="evenodd" clip-rule="evenodd" d="M396.425 247.594H400.956L403.093 248.906V268.197C403.093 268.197 402.773 274.469 410.514 278.464C402.703 278.086 396.425 271.293 396.425 263.038V247.594Z" fill="#AEC2FD"/>
<path d="M429.345 247.594H396.425V250.212H429.345V247.594Z" fill="#AEC2FD"/>
<path fill-rule="evenodd" clip-rule="evenodd" d="M397.131 243.594H428.639C429.91 243.594 430.946 244.633 430.946 245.901C430.946 247.171 429.907 248.208 428.639 248.208H397.131C395.861 248.208 394.824 247.169 394.824 245.901C394.824 244.631 395.861 243.594 397.131 243.594Z" fill="#D0E0FF"/>
<path fill-rule="evenodd" clip-rule="evenodd" d="M318.965 17.1562L320.526 18.7401L322.512 17.7372L321.488 19.7113L323.055 21.2909L320.861 20.9262L319.843 22.9045L319.512 20.7057L317.315 20.3495L319.304 19.355L318.965 17.1562Z" fill="#7BA9E3"/>
<path fill-rule="evenodd" clip-rule="evenodd" d="M341.154 17.1562L342.714 18.7401L344.701 17.7372L343.677 19.7113L345.244 21.2909L343.049 20.9262L342.031 22.9045L341.701 20.7057L339.504 20.3495L341.493 19.355L341.154 17.1562Z" fill="#7BA9E3"/>
<path fill-rule="evenodd" clip-rule="evenodd" d="M355.718 36.7656L357.066 38.1332L358.779 37.2681L357.895 38.9729L359.248 40.3342L357.355 40.0203L356.477 41.7272L356.19 39.8295L354.295 39.5221L356.012 38.6633L355.718 36.7656Z" fill="#7BA9E3"/>
</svg>
