<svg  viewBox="0 0 1440 1024" fill="none" xmlns="http://www.w3.org/2000/svg">
<g clip-path="url(#clip0_120_31447)">
<g style="mix-blend-mode:hard-light" opacity="0.2">
<path d="M305.374 1175.59C306.551 1175.32 307.419 1174.59 307.941 1173.73L344.514 1184.09C344.279 1184.62 344.166 1185.18 344.281 1185.76C344.673 1187.4 346.657 1188.36 348.717 1187.86C350.735 1187.38 352.093 1185.64 351.682 1183.97C351.667 1183.85 351.568 1183.76 351.511 1183.66L515.222 1108.1C516.042 1109.08 517.552 1109.59 519.087 1109.19C520.642 1108.84 521.736 1107.76 522.026 1106.57L620.76 1108.69C620.77 1108.9 620.695 1109.14 620.767 1109.36C621.159 1111 623.143 1111.97 625.16 1111.49C627.221 1110.99 628.535 1109.26 628.144 1107.62C628.096 1107.35 627.92 1107.13 627.787 1106.9L740.919 1039.16C741.749 1039.97 743.14 1040.36 744.548 1040.03C746.273 1039.59 747.419 1038.32 747.491 1036.94L894.12 1019.4C894.139 1019.43 894.097 1019.45 894.116 1019.49C894.508 1021.13 896.491 1022.09 898.552 1021.59C900.569 1021.11 901.927 1019.37 901.516 1017.69C901.358 1017.13 901.007 1016.7 900.59 1016.34L973.601 946.193C974.449 946.657 975.499 946.819 976.591 946.584C978.273 946.169 979.419 944.897 979.571 943.564L1111.79 930.955C1111.82 931.023 1111.76 931.094 1111.8 931.162C1112.19 932.799 1114.17 933.767 1116.23 933.267C1118.06 932.828 1119.24 931.417 1119.19 929.92L1283.88 897.683C1284.4 899.177 1286.24 900.082 1288.2 899.586C1289.14 899.374 1289.92 898.859 1290.45 898.199L1452.01 961.251C1451.73 961.796 1451.6 962.405 1451.73 963.02C1452.12 964.657 1454.11 965.625 1456.17 965.125C1458.23 964.624 1459.54 962.898 1459.13 961.227C1459.08 961.039 1458.96 960.924 1458.86 960.755L1625 872.513C1625.85 873.356 1627.26 873.779 1628.73 873.459C1630.79 872.959 1632.11 871.232 1631.71 869.595C1631.59 869.1 1631.29 868.648 1630.89 868.32L1747.94 758.108C1748.77 758.538 1749.82 758.7 1750.91 758.465C1752.93 757.984 1754.29 756.238 1753.87 754.567C1753.67 753.732 1753.08 753.067 1752.29 752.704L1829.95 618.08C1830.57 618.227 1831.23 618.268 1831.88 618.103C1833.9 617.622 1835.26 615.876 1834.85 614.205C1834.8 613.931 1834.62 613.714 1834.49 613.479L1979.52 523.126C1980.38 523.883 1981.69 524.224 1983.05 523.908C1985.11 523.408 1986.43 521.682 1986.02 520.01C1985.63 518.373 1983.64 517.405 1981.58 517.905C1980.59 518.137 1979.78 518.671 1979.22 519.383L1889.7 484.435C1890 483.836 1890.17 483.209 1890.02 482.56C1889.61 480.889 1887.65 479.955 1885.59 480.455C1884.22 480.771 1883.2 481.693 1882.79 482.761L1740.6 468.929C1740.63 468.617 1740.69 468.339 1740.62 468.032C1740.23 466.394 1738.25 465.427 1736.19 465.927C1734.17 466.408 1732.81 468.153 1733.22 469.825C1733.34 470.319 1733.63 470.738 1733.99 471.085L1629.69 565.685C1628.84 565.221 1627.77 565.025 1626.64 565.279C1624.76 565.737 1623.57 567.2 1623.68 568.712L1457.18 606.229C1456.63 604.788 1454.83 603.95 1452.91 604.427C1451.61 604.758 1450.65 605.608 1450.2 606.609L1284.48 585.978C1284.51 585.667 1284.55 585.355 1284.47 585.014C1284.07 583.377 1282.09 582.409 1280.03 582.909C1278.01 583.39 1276.65 585.136 1277.05 586.773C1277.15 587.234 1277.42 587.619 1277.71 587.952L1223.3 630.678C1222.46 630.041 1221.23 629.748 1219.97 630.06C1218.37 630.437 1217.27 631.603 1217.02 632.854L1070.75 639.145C1070.73 639.025 1070.76 638.886 1070.75 638.766C1070.36 637.129 1068.37 636.161 1066.31 636.661C1064.29 637.142 1062.94 638.888 1063.35 640.559C1063.46 641.14 1063.88 641.588 1064.35 641.964L955.372 757.419C954.581 757.056 953.612 756.942 952.582 757.192C951.088 757.565 949.999 758.559 949.647 759.728L794.58 755.999C794.57 755.793 794.621 755.601 794.611 755.395C794.2 753.724 792.236 752.79 790.175 753.29C788.157 753.771 786.8 755.517 787.211 757.188C787.383 757.87 787.834 758.385 788.435 758.79L718.438 844.367C717.685 844.071 716.777 843.972 715.832 844.184C713.815 844.665 712.457 846.41 712.868 848.082C712.988 848.576 713.258 848.961 713.614 849.308L598.744 951.503C597.897 951.039 596.809 950.809 595.694 951.097C593.676 951.578 592.318 953.324 592.729 954.995C592.954 955.865 593.603 956.544 594.498 956.902L574.077 994.201L432.597 1057.84C431.8 1056.8 430.29 1056.3 428.712 1056.71C426.694 1057.19 425.337 1058.93 425.747 1060.61C425.867 1061.1 426.138 1061.49 426.493 1061.83L306.84 1170.17C305.993 1169.71 304.924 1169.51 303.851 1169.78C301.833 1170.26 300.476 1172.01 300.887 1173.68C301.33 1175.13 303.295 1176.06 305.374 1175.59ZM1979.02 522.51L1834 612.896C1833.69 612.617 1833.28 612.375 1832.83 612.239L1885.52 486.557C1886.03 486.622 1886.55 486.6 1887.06 486.458C1888.04 486.227 1888.9 485.674 1889.42 484.981L1978.94 519.929C1978.64 520.527 1978.47 521.155 1978.62 521.803C1978.71 522.058 1978.88 522.275 1979.02 522.51ZM714.788 849.879C715.275 850.082 715.833 850.128 716.373 850.139L721.792 926.048C720.678 926.715 720.08 927.826 720.149 928.891L630.37 946.882L714.788 849.879ZM1067.83 642.559C1068.25 642.455 1068.57 642.269 1068.91 642.117L1168.38 746.185C1167.49 746.963 1167 747.983 1167.22 749.025L1078.71 774.922C1078.19 773.807 1076.96 773.135 1075.48 773.163L1067.7 642.616C1067.75 642.597 1067.79 642.578 1067.83 642.559ZM1221.44 635.976C1222.1 635.811 1222.65 635.477 1223.13 635.096L1336.3 711.278C1335.84 711.867 1335.64 712.547 1335.66 713.252L1174.48 747.083C1174.17 746.251 1173.46 745.644 1172.54 745.338L1219.78 636.046C1220.36 636.125 1220.88 636.103 1221.44 635.976ZM1884.7 486.333L1832.01 612.015C1831.5 611.951 1830.98 611.973 1830.45 612.081C1830.03 612.185 1829.65 612.356 1829.29 612.561L1778.72 557.314C1779.72 556.531 1780.3 555.387 1780.04 554.278C1779.98 553.97 1779.76 553.686 1779.61 553.417L1883.57 485.657C1883.91 485.97 1884.25 486.197 1884.7 486.333ZM1746.92 754.222L1630.77 722.582C1630.94 722.127 1631.03 721.623 1630.91 721.129L1718.43 694.704C1719.05 696.074 1720.79 696.81 1722.62 696.372C1722.71 696.334 1722.79 696.295 1722.88 696.257L1748.65 752.771C1747.91 753.147 1747.32 753.619 1746.92 754.222ZM1454.84 959.185L1422.64 862.246C1424.29 861.59 1425.37 860.098 1425.01 858.614C1424.99 858.58 1424.97 858.547 1424.93 858.479L1506.75 829.59C1507.13 830.263 1507.71 830.721 1508.5 830.998L1456.19 959.042C1455.8 959.006 1455.3 959.062 1454.84 959.185ZM1290.95 895.318C1290.86 895.063 1290.77 894.808 1290.62 894.625L1340.21 854.394L1417.69 859.611C1417.68 859.784 1417.65 860.009 1417.68 860.163L1290.95 895.318ZM626.54 1105.73C625.911 1105.46 625.168 1105.37 624.417 1105.45L602.843 986.306L704.29 1023.13L626.54 1105.73ZM515.161 1104.88C514.737 1105.45 514.578 1106.11 514.689 1106.78L389.851 1136.7C389.832 1136.67 389.813 1136.63 389.775 1136.57L485.706 1089.39L515.161 1104.88ZM389.414 1135.93C389.101 1135.56 388.679 1135.29 388.192 1135.08L428.183 1062.47C428.798 1062.61 429.479 1062.69 430.173 1062.5C431.015 1062.3 431.723 1061.85 432.227 1061.33L484.854 1089.01L389.414 1135.93ZM387.577 1134.94C386.962 1134.79 386.281 1134.72 385.586 1134.9C383.568 1135.38 382.211 1137.13 382.622 1138.8C382.636 1138.92 382.755 1139.03 382.812 1139.13L376.464 1141.85L424.56 1067.84L387.577 1134.94ZM382.997 1139.56C383.035 1139.62 383.05 1139.74 383.13 1139.79L373.421 1146.46L375.95 1142.54L382.997 1139.56ZM535.146 1067.19C535.723 1067.26 536.281 1067.31 536.891 1067.16C537.354 1067.04 537.779 1066.85 538.185 1066.63L522.193 1097.81L535.146 1067.19ZM539.85 1063.35C539.831 1063.32 539.874 1063.3 539.855 1063.27C539.664 1062.55 539.175 1061.97 538.489 1061.6L545.284 1052.7L539.85 1063.35ZM534.716 1067.08L519.422 1103.18C518.845 1103.11 518.287 1103.06 517.677 1103.21C516.836 1103.41 516.17 1103.84 515.623 1104.38L486.41 1089.03L533.044 1066.1C533.433 1066.6 534.02 1066.89 534.716 1067.08ZM344.182 1167L371.133 1148.53L363.258 1160.61L344.353 1167.3C344.253 1167.22 344.239 1167.1 344.182 1167ZM344.709 1168.03L362.557 1161.73L349.378 1181.96C348.702 1181.8 348.002 1181.69 347.222 1181.91C347.076 1181.94 347.01 1182.01 346.925 1182.05L342.382 1171.64C344.017 1170.95 345.049 1169.48 344.709 1168.03ZM363.785 1161.26L368.183 1159.72L351.506 1180.16L363.785 1161.26ZM364.506 1160.18L372.813 1147.36L383.448 1140.07C383.566 1140.19 383.747 1140.32 383.908 1140.41L369.116 1158.54L364.506 1160.18ZM384.329 1140.69C385.1 1141.02 386.07 1141.13 387.015 1140.92C388.929 1140.44 390.15 1138.93 389.961 1137.37L511.836 1108.14L369.981 1158.28L384.329 1140.69ZM539.456 1066.14L542.793 1067.81L522.697 1098.89L539.456 1066.14ZM539.733 1065.6L548.466 1048.62L592.373 991.244L543.133 1067.28L539.733 1065.6ZM804.463 835.855C805.012 836.073 805.651 836.167 806.317 836.122L812.698 908.733L792.122 913.217L761.19 885.866L804.463 835.855ZM1167.44 749.515C1167.76 750.174 1168.27 750.703 1168.98 751.018L1143.06 801.109L1078.66 777.095C1078.89 776.568 1079.05 775.993 1078.93 775.412L1167.44 749.515ZM1335.81 713.987C1335.98 714.376 1336.17 714.713 1336.48 714.992L1249.94 795.407L1174.1 749.614C1174.48 749.064 1174.66 748.436 1174.63 747.817L1335.81 713.987ZM1718.2 693.921C1718.22 694.041 1718.17 694.147 1718.23 694.248L1630.69 720.638C1630.2 719.591 1629.08 718.914 1627.73 718.885L1627.75 697.416L1718.2 693.921ZM1286.75 893.617C1286.51 893.678 1286.32 893.807 1286.07 893.921L1259.1 850.965C1259.91 850.518 1260.49 849.839 1260.76 849.087L1299.17 851.675L1287.99 893.564C1287.6 893.529 1287.18 893.546 1286.75 893.617ZM1142.73 801.76L1102.68 879.168L1076.48 778.996C1077.22 778.706 1077.85 778.301 1078.29 777.765L1142.73 801.76ZM1301.72 829.031L1269.73 828.671L1278.77 813.749L1302.28 827.94C1301.99 828.279 1301.78 828.667 1301.72 829.031ZM1301.69 829.549C1301.7 829.756 1301.63 830 1301.7 830.221C1301.72 830.255 1301.74 830.288 1301.76 830.322L1260.49 846.72C1260.2 846.302 1259.84 845.955 1259.4 845.732L1269.44 829.183L1301.69 829.549ZM1258.52 845.494C1257.9 845.347 1257.22 845.273 1256.48 845.476C1256.11 845.561 1255.83 845.727 1255.53 845.861L1240.89 828.885L1268.38 829.193L1258.52 845.494ZM1218.01 826.178L1228.83 816.109L1239.36 828.346L1218.78 828.109C1218.81 827.884 1218.85 827.659 1218.78 827.438C1218.66 826.943 1218.37 826.525 1218.01 826.178ZM1217.35 825.671C1216.52 825.241 1215.45 825.045 1214.38 825.314C1214.24 825.337 1214.08 825.447 1213.96 825.504L1172.98 751.212L1228.32 815.492L1217.35 825.671ZM1218.8 828.608L1239.81 828.862L1254.82 846.304C1254.65 846.466 1254.41 846.614 1254.25 846.81L1218.31 829.628C1218.55 829.308 1218.69 828.992 1218.8 828.608ZM1309.02 828.293L1429.65 780.352C1429.71 780.453 1429.71 780.54 1429.81 780.622L1354.44 841.786L1309 829.948C1309.15 829.46 1309.24 828.956 1309.12 828.462C1309.08 828.394 1309 828.346 1309.02 828.293ZM1304.68 826.357C1303.97 826.507 1303.39 826.894 1302.89 827.328L1279.22 813.041L1338.12 715.819C1338.12 715.819 1338.12 715.819 1338.14 715.853L1305.91 826.271C1305.48 826.254 1305.1 826.253 1304.68 826.357ZM1337.24 715.581L1278.44 812.592L1250.65 795.808L1337.12 715.465C1337.16 715.532 1337.18 715.566 1337.24 715.581ZM1278 813.334L1268.67 828.681L1240.44 828.37L1229.42 815.55L1249.99 796.438L1278 813.334ZM1228.91 814.934L1173.36 750.369C1173.4 750.35 1173.46 750.278 1173.49 750.226L1249.31 795.985L1228.91 814.934ZM1171.65 751.216C1171.8 751.193 1171.95 751.083 1172.08 751.026L1213.3 825.756C1212.81 826.018 1212.36 826.347 1212 826.758L1143.92 801.4L1169.86 751.257C1170.44 751.336 1171.04 751.362 1171.65 751.216ZM1211.7 827.443C1211.44 828.022 1211.28 828.597 1211.42 829.212C1211.49 829.433 1211.65 829.616 1211.74 829.784L1105.09 888.336L1103.01 880.412L1143.59 802.051L1211.7 827.443ZM1101.99 880.489L1096.56 890.969C1096.21 890.915 1095.8 890.932 1095.38 890.95L1077.44 786.537L1101.99 880.489ZM1098.95 892.643C1098.93 892.61 1098.89 892.542 1098.87 892.509L1104.36 889.504L1104.74 891.021L1098.95 892.643ZM1098.55 891.937C1098.25 891.604 1097.85 891.363 1097.44 891.208L1102.34 881.767L1104.21 888.856L1098.55 891.937ZM1084.18 887.7L975.175 831.362L975.116 826.919L978.762 825.077L1084.18 887.7ZM849.822 1012.7L789.464 972.081L813.768 937.134C814.483 937.363 815.268 937.433 816.067 937.244C816.152 937.206 816.236 937.168 816.321 937.13L851.927 1012.94L849.822 1012.7ZM731.204 999.032C731.241 998.72 731.278 998.409 731.211 998.101C731.087 997.693 730.897 997.356 730.665 997.039L735.436 993.513L736.568 999.668L731.204 999.032ZM726.286 930.614L775.153 963.517L755.584 977.943L736.015 992.369L724.794 931.366C725.384 931.186 725.875 930.925 726.286 930.614ZM813.035 936.872L788.862 971.676L776.41 963.292L812.637 936.544C812.774 936.694 812.893 936.809 813.035 936.872ZM811.633 934.295C811.577 934.573 811.583 934.866 811.631 935.139C811.755 935.548 811.945 935.884 812.177 936.202L775.908 962.968L726.961 930.017C727.205 929.697 727.413 929.309 727.535 928.959L811.633 934.295ZM735.345 992.879L730.205 996.696C729.546 996.19 728.751 995.913 727.815 995.953L727.375 990.079L724.441 933.759L735.345 992.879ZM736.167 993.017L755.942 978.436L775.717 963.855L788.41 972.384L767.022 1003.16L737.414 999.753L736.167 993.017ZM788.951 972.775L847.987 1012.47L767.808 1003.23L788.951 972.775ZM871.02 896.89L908.245 888.794C908.283 888.862 908.302 888.895 908.34 888.963L819.396 931.918L871.02 896.89ZM967.345 831.45L933.105 865.867L963.88 833.801L967.345 831.45ZM973.253 830.409C973.681 829.753 973.906 829.02 973.696 828.271C973.644 828.084 973.506 827.934 973.411 827.766L974.285 827.333L974.323 830.984L973.253 830.409ZM974.278 826.661L973.15 827.209C972.837 826.843 972.477 826.582 972.032 826.36L972.931 825.03C973.338 825.185 973.792 825.235 974.289 825.265L974.278 826.661ZM972.463 824.86C972.524 824.874 972.562 824.942 972.624 824.956L971.724 826.287C971.582 826.224 971.398 826.18 971.213 826.136L972.463 824.86ZM966.752 830.872L966.601 830.982L966.733 830.838C966.733 830.838 966.733 830.838 966.752 830.872ZM961.643 835.308L913.99 884.917C913.767 884.806 913.459 884.733 913.194 884.641L920.068 863.521L961.643 835.308ZM912.39 884.537C911.955 884.52 911.539 884.538 911.1 884.608C910.259 884.816 909.593 885.24 909.046 885.78L896.717 879.407L918.968 864.308L912.39 884.537ZM908.579 886.368C908.24 886.899 908.086 887.474 908.097 888.06L872.762 895.731L896.089 879.898L908.579 886.368ZM915.481 887.37C915.471 887.164 915.522 886.972 915.493 886.732C915.359 886.117 914.947 885.67 914.468 885.293L967.766 831.725C968.33 832.063 969.03 832.172 969.777 832.175L972.709 889.339L915.481 887.37ZM975.11 826.247L975.102 825.197C975.206 825.192 975.31 825.188 975.414 825.184C976.17 825.014 976.751 824.628 977.293 824.174L978.241 824.72L975.11 826.247ZM972.003 824.517L970.532 826.061C970.201 826.04 969.908 826.087 969.615 826.134L968.827 822.945L970.973 822.786C970.968 822.872 970.964 822.959 970.978 823.079C971.093 823.66 971.525 824.141 972.003 824.517ZM966.472 830.281L964.406 832.47L920.504 862.314L930.886 830.434L966.342 829.58C966.376 829.733 966.286 829.858 966.32 830.011C966.334 830.131 966.434 830.213 966.472 830.281ZM868.88 897.342L818.006 931.908C817.328 931.368 816.429 931.095 815.451 931.154L813.536 909.37L868.88 897.342ZM814.656 931.256C814.614 931.275 814.595 931.241 814.552 931.26C814.028 931.369 813.56 931.578 813.131 931.854L792.814 913.877L812.738 909.559L814.656 931.256ZM812.583 932.394C812.168 932.791 811.853 933.269 811.66 933.777L727.519 928.46C727.547 928.321 727.533 928.201 727.518 928.081L791.869 914.089L812.583 932.394ZM730.998 999.799L731.286 999.838L736.75 1000.56L742.926 1034.13L742.883 1034.15L728.946 1001.73C729.924 1001.29 730.645 1000.59 730.998 999.799ZM975.199 940.629C974.632 940.757 974.141 941.018 973.712 941.295L914.432 889.568C914.889 889.152 915.224 888.707 915.398 888.166L972.791 890.145L975.408 940.621C975.304 940.625 975.242 940.61 975.199 940.629ZM1099.18 893.633C1099.17 893.513 1099.17 893.426 1099.18 893.34L1104.93 891.737L1105.43 893.749L1099.18 893.633ZM1260.92 848.339C1260.93 848.08 1261.01 847.835 1260.92 847.581C1260.9 847.547 1260.86 847.48 1260.84 847.446L1302.11 831.048C1302.55 831.736 1303.36 832.219 1304.31 832.386L1299.39 850.942L1260.92 848.339ZM1355.43 842.02L1430.46 781.128C1430.95 781.418 1431.47 781.689 1432.14 781.73L1421.49 856.436C1421.22 856.43 1420.95 856.424 1420.66 856.471C1419.48 856.745 1418.61 857.47 1418.11 858.284L1355.43 842.02ZM1422.09 856.376L1432.74 781.67C1433.01 781.676 1433.28 781.682 1433.57 781.635C1434.33 781.465 1434.91 781.079 1435.41 780.644L1476.12 806.74L1423.52 856.833C1423.12 856.591 1422.61 856.441 1422.09 856.376ZM1509.41 825.153C1508.65 825.323 1508.07 825.709 1507.57 826.144L1477.28 806.726L1533.23 753.408L1510.68 825.048C1510.31 825.047 1509.89 825.064 1509.41 825.153ZM1534.49 752.252L1542.83 744.303C1543 744.399 1543.18 744.443 1543.36 744.487C1543.43 744.502 1543.49 744.517 1543.53 744.584L1513.34 819.388L1534.49 752.252ZM1545.21 738.603C1544.9 738.617 1544.63 738.611 1544.33 738.657C1544.14 738.7 1543.95 738.829 1543.78 738.905L1540.33 733.829L1549.81 703.658L1545.21 738.603ZM1542.85 739.323C1541.68 740.096 1541.06 741.345 1541.33 742.574C1541.33 742.574 1541.33 742.574 1541.35 742.608L1537.08 744.011L1539.89 735.037L1542.85 739.323ZM1541.61 743.079C1541.76 743.349 1541.92 743.618 1542.13 743.815L1534.97 750.647L1536.84 744.624L1541.61 743.079ZM1623.73 721.224C1623.56 721.679 1623.49 722.13 1623.53 722.576L1554.5 739.126C1553.98 737.632 1552.15 736.761 1550.2 737.256C1549.02 737.53 1548.15 738.256 1547.65 739.069C1547.51 739.006 1547.35 738.996 1547.2 738.933C1546.76 738.71 1546.25 738.56 1545.71 738.548L1550.38 703.066C1550.7 703.052 1550.97 703.058 1551.26 703.011C1552.44 702.738 1553.28 702.065 1553.8 701.199L1623.73 721.224ZM1535.93 744.99L1533.79 751.851L1476.62 806.305L1435.91 780.21C1436.51 779.478 1436.76 778.606 1436.6 777.751C1436.6 777.751 1436.6 777.751 1436.58 777.718L1535.93 744.99ZM1075.35 779.25L1094.61 891.086C1093.97 891.285 1093.42 891.618 1092.94 892L979.635 824.644L1072.15 778.11C1072.79 778.962 1074.03 779.375 1075.35 779.25ZM919.366 863.034L895.846 878.996L809.585 834.365C809.788 834.063 809.952 833.694 810.032 833.364L929.95 830.473L919.366 863.034ZM807.15 836.087C807.991 835.879 808.656 835.455 809.203 834.915L895.242 879.434L870.602 896.15L813.412 908.583L807.046 836.091C807.088 836.072 807.107 836.106 807.15 836.087ZM723.707 931.515L725.188 959.606L723.187 931.537C723.371 931.581 723.56 931.539 723.707 931.515ZM723.842 998.911C723.805 999.223 723.744 999.587 723.811 999.894C723.926 1000.48 724.338 1000.92 724.817 1001.3L709.741 1017.32L664.998 992.1L723.842 998.911ZM743.701 1034L737.554 1000.66L766.104 1004.46L745.437 1034.15C744.906 1033.97 744.306 1033.94 743.701 1034ZM849.37 1013.41L850.554 1014.19C850.375 1014.44 850.257 1014.7 850.14 1014.96L767.478 1003.97L849.37 1013.41ZM856.775 1013.51L856.259 1013.45C855.98 1013.24 855.658 1013.04 855.331 1012.94L866.87 987.536L879.305 1000.23L856.775 1013.51ZM854.555 1012.69C854.04 1012.63 853.458 1012.63 852.891 1012.76C852.806 1012.8 852.721 1012.84 852.636 1012.88L816.917 936.864C817.002 936.826 817.129 936.769 817.214 936.731L866.281 986.872L854.555 1012.69ZM817.818 936.292C818.318 935.857 818.695 935.394 818.869 934.852L888.07 938.884L866.587 986.187L817.818 936.292ZM818.99 934.123C819.004 933.864 819.036 933.639 819.007 933.399C818.955 933.212 818.836 933.096 818.741 932.928L908.602 889.52C908.972 889.987 909.474 890.311 910.065 890.51L888.418 938.181L818.99 934.123ZM910.865 890.7C910.926 890.715 910.988 890.729 911.049 890.744L905.906 939.168L889.288 938.213L910.865 890.7ZM911.905 890.656C912.113 890.648 912.34 890.672 912.51 890.596C913.077 890.469 913.568 890.207 913.998 889.931L973.278 941.658C972.863 942.054 972.528 942.499 972.378 942.988L906.757 939.167L911.905 890.656ZM973.557 890.182L974.966 890.226L975.313 924.136L973.557 890.182ZM973.517 889.357L970.548 832.125C970.59 832.106 970.652 832.121 970.694 832.102C971.304 831.955 971.88 831.655 972.314 831.293L974.318 832.673L974.907 889.367L973.517 889.357ZM975.199 833.29L1060.19 892.361L975.796 889.433L975.199 833.29ZM975.575 832.448L1092.24 892.736C1092.1 892.966 1091.96 893.196 1091.89 893.44L1061.87 892.411L975.575 832.448ZM1099.12 894.462L1105.66 894.532L1114.27 927.526C1114.27 927.526 1114.27 927.526 1114.23 927.545L1097.12 896.58C1098.16 896.07 1098.87 895.334 1099.12 894.462ZM1106.49 893.739L1105.88 891.439L1170.85 873.165L1150.17 894.348L1106.49 893.739ZM1105.69 890.723L1105.24 888.985L1212.06 830.356C1212.16 830.438 1212.26 830.52 1212.36 830.602L1171.81 872.142L1105.69 890.723ZM1212.98 831.041C1213.79 831.438 1214.82 831.567 1215.85 831.317C1216.36 831.175 1216.8 831.018 1217.19 830.761L1240.53 852.78L1173.23 871.721L1212.98 831.041ZM1217.67 830.293C1217.82 830.183 1217.93 830.092 1218.02 829.968L1253.97 847.15C1253.56 847.752 1253.4 848.414 1253.49 849.134L1241.23 852.596L1217.67 830.293ZM1253.77 849.811C1253.8 849.879 1253.82 849.912 1253.86 849.98L1244.34 855.463L1241.86 853.155L1253.77 849.811ZM1254.31 850.581C1255.16 851.424 1256.53 851.78 1257.95 851.479C1258.19 851.417 1258.38 851.288 1258.59 851.193L1285.56 894.149C1285.47 894.187 1285.43 894.206 1285.39 894.225L1244.91 856.007L1254.31 850.581ZM1299.93 850.953L1304.86 832.431C1305.26 832.466 1305.67 832.449 1306.09 832.345C1307.27 832.071 1308.14 831.346 1308.64 830.532L1353.75 842.263L1339.73 853.638L1299.93 850.953ZM1354.8 842.512L1417.69 858.853L1340.99 853.706L1354.8 842.512ZM1424.22 857.32L1476.85 807.175L1507.13 826.593C1506.53 827.325 1506.28 828.197 1506.44 829.051C1506.46 829.085 1506.48 829.119 1506.52 829.186L1424.75 858.056C1424.58 857.753 1424.44 857.518 1424.22 857.32ZM1511.65 825.249L1544.1 744.749C1544.73 744.929 1545.46 744.985 1546.19 744.782C1546.38 744.739 1546.53 744.63 1546.7 744.554L1566.94 776.059L1512.42 825.492C1512.22 825.414 1511.95 825.322 1511.65 825.249ZM1547.59 744.241C1548.11 743.926 1548.48 743.462 1548.8 742.984C1549.61 743.38 1550.62 743.476 1551.67 743.259C1553.6 742.816 1554.87 741.195 1554.62 739.62L1623.65 723.071C1623.77 723.479 1624.01 723.797 1624.32 724.076L1567.67 775.477L1547.59 744.241ZM1626.75 718.943C1626.65 718.948 1626.58 718.933 1626.5 718.971C1625.37 719.225 1624.48 719.917 1623.96 720.784L1554.01 700.811C1554.08 700.653 1554.15 700.495 1554.2 700.303L1626.79 697.508L1626.75 718.943ZM1549.16 702.979L1539.73 732.959L1527.9 715.572L1547.77 702.297C1548.17 702.625 1548.61 702.847 1549.16 702.979ZM1539.34 734.147L1536.15 744.257L1436.28 777.179C1436.22 777.078 1436.2 776.958 1436.1 776.876L1527.08 716.106L1539.34 734.147ZM1429.18 779.511C1429.2 779.544 1429.24 779.612 1429.26 779.645L1308.62 827.587C1308.18 826.985 1307.52 826.565 1306.65 826.36L1338.88 715.942C1339.26 715.944 1339.69 715.96 1340.11 715.856C1340.76 715.691 1341.32 715.357 1341.82 715.009L1429.93 776.981C1429.27 777.698 1428.95 778.642 1429.18 779.511ZM978.968 824.31L977.779 823.62C978.293 822.926 978.522 822.107 978.336 821.305C978.302 821.151 978.184 821.035 978.108 820.901L1061.23 782.911L978.968 824.31ZM970.99 822.062L968.678 822.211L955.163 766.198L973.432 819.409C972.058 819.898 971.134 820.901 970.99 822.062ZM953.788 763.103L968.054 822.237L932.772 824.531L952.767 763.18C953.079 763.167 953.434 763.135 953.788 763.103ZM968.202 822.971L969.005 826.28C967.593 826.701 966.564 827.71 966.317 828.874L931.069 829.72L932.504 825.283L968.202 822.971ZM930.237 829.755L824.304 832.333L931.649 825.371L930.237 829.755ZM791.177 913.429L727.436 927.275C727.255 926.766 726.923 926.366 726.421 926.043L760.681 886.473L791.177 913.429ZM725.838 925.671C725.27 925.419 724.608 925.378 723.923 925.39L717.758 855.801L717.332 850.047C717.332 850.047 717.332 850.047 717.375 850.028C717.899 849.92 718.367 849.711 718.796 849.434L760.207 886.011L725.838 925.671ZM723.275 925.469C723.232 925.488 723.171 925.473 723.129 925.492C722.982 925.516 722.873 925.606 722.746 925.663L720.471 894.092L723.275 925.469ZM722.221 931.337L726.837 996.011C726.837 996.011 726.837 996.011 726.794 996.03C725.764 996.28 724.924 996.867 724.368 997.579L636.3 967.291L720.597 930.251C720.986 930.751 721.549 931.089 722.221 931.337ZM724.067 998.178C724.024 998.197 724.043 998.231 724.001 998.25L663.507 991.249L627.656 971.031L635.303 967.694L724.067 998.178ZM599.115 955.933L614.036 964.35L601.514 978.764L597.552 956.843C598.143 956.663 598.7 956.329 599.115 955.933ZM614.803 964.766L625.992 971.101L602.008 981.621L601.687 979.825L614.803 964.766ZM601.116 982.02L600.775 982.172C600.6 981.956 600.382 981.758 600.183 981.594L600.89 980.772L601.116 982.02ZM598.603 986.812C599.449 986.518 600.157 986.075 600.623 985.487L601.825 985.918L619.241 1082.14L598.603 986.812ZM600.971 984.783C600.995 984.73 601.037 984.711 601.018 984.677L601.577 984.723L601.624 984.996L600.971 984.783ZM601.239 984.031C601.276 983.719 601.336 983.355 601.269 983.047C601.255 982.927 601.155 982.845 601.099 982.744L601.226 982.687L601.485 984.089L601.239 984.031ZM602.119 982.288L626.698 971.502L661.298 991.015L602.455 984.203L602.119 982.288ZM627.012 970.645L615.378 964.087L617.565 961.549L634.47 967.35L627.012 970.645ZM614.611 963.672L600.476 955.703L616.666 961.276L614.611 963.672ZM600.656 979.696L599.397 981.145C598.848 980.927 598.271 980.847 597.647 980.874L596.89 958.783L600.656 979.696ZM710.447 1017.72L725.457 1001.77C726.247 1002.14 727.217 1002.25 728.247 1002C728.332 1001.96 728.417 1001.92 728.502 1001.89L742.439 1034.31C741.971 1034.52 741.608 1034.72 741.259 1035.05L710.447 1017.72ZM879.798 1000.72L895.366 1016.61C894.932 1016.97 894.64 1017.4 894.429 1017.87L857.929 1013.67L879.798 1000.72ZM1115.24 927.261L1106.67 894.541L1149.34 895.141L1117.65 927.573C1116.98 927.239 1116.14 927.154 1115.24 927.261ZM1288.55 893.61L1299.71 851.686L1338.95 854.326L1289.91 894.138C1289.49 893.863 1289.09 893.708 1288.55 893.61ZM1628.13 571.23C1628.4 571.149 1628.6 571.02 1628.85 570.906L1719.62 691.14C1718.9 691.669 1718.35 692.382 1718.2 693.163L1627.71 696.677L1627.88 571.257C1627.92 571.238 1628.03 571.234 1628.13 571.23ZM596.13 986.864C596.641 987.015 597.18 987.027 597.785 986.967L623.453 1105.63C622.734 1105.87 622.154 1106.25 621.673 1106.72L543.819 1067.65L596.13 986.864ZM602.704 985.399L602.608 984.852L662.813 991.813L709.19 1017.95L704.927 1022.47L602.704 985.399ZM709.853 1018.37L739.372 1035.01L705.68 1022.76L709.853 1018.37ZM747.517 1036.04C747.326 1035.33 746.795 1034.76 746.128 1034.43L766.865 1004.58L849.919 1015.61C849.868 1015.8 849.92 1015.99 849.93 1016.19L747.517 1036.04ZM857.004 1014.29L886.447 1017.69L857.32 1015.8C857.357 1015.49 857.394 1015.17 857.327 1014.87C857.255 1014.65 857.118 1014.5 857.004 1014.29ZM897.161 1015.64C896.74 1015.74 896.315 1015.93 895.951 1016.14L880.463 1000.3L900.637 988.407L897.766 1015.58C897.577 1015.62 897.35 1015.6 897.161 1015.64ZM879.97 999.804L867.222 986.746L888.964 938.864L905.808 939.844L900.725 987.525L879.97 999.804ZM906.655 939.929L972.214 943.736C972.201 943.995 972.168 944.22 972.197 944.46C972.245 944.734 972.402 944.917 972.535 945.152L901.603 987.005L906.655 939.929ZM976.263 940.533L975.713 890.229L1061.29 893.177L1074.44 902.34L979.118 941.912C978.581 941.056 977.549 940.548 976.263 940.533ZM1063.04 893.275L1091.78 894.289C1091.79 894.495 1091.74 894.687 1091.77 894.927C1091.78 895.047 1091.86 895.095 1091.92 895.196L1075.52 901.985L1063.04 893.275ZM1092.19 895.667C1092.94 896.807 1094.53 897.361 1096.17 896.964C1096.36 896.922 1096.51 896.812 1096.68 896.736L1113.78 927.701C1113.53 927.815 1113.33 927.944 1113.14 928.073L1076.09 902.323L1092.19 895.667ZM1118.23 928.031L1150.35 895.15L1175.04 895.49L1118.43 928.195C1118.39 928.128 1118.31 928.079 1118.23 928.031ZM1151.12 894.342L1172.22 872.763L1241.13 853.358L1243.74 855.815L1176.41 894.709L1151.12 894.342ZM1244.31 856.36L1284.89 894.66C1284.38 895.094 1283.98 895.611 1283.83 896.186L1177.86 894.734L1244.31 856.36ZM1513.1 826.032L1567.4 776.781L1625.94 868.046C1625.55 868.303 1625.2 868.628 1624.92 868.967L1513.63 829.042C1513.89 828.463 1514.04 827.888 1513.91 827.273C1513.73 826.764 1513.45 826.379 1513.1 826.032ZM1627.26 867.456C1627.07 867.499 1626.92 867.608 1626.75 867.684L1568.05 776.15L1624.92 724.568C1625.47 724.873 1626.08 725.019 1626.79 725.041L1627.51 867.428C1627.47 867.447 1627.34 867.418 1627.26 867.456ZM1723.49 690.546L1775.6 558.29C1776.05 558.339 1776.57 558.317 1777.08 558.176C1777.5 558.072 1777.88 557.901 1778.25 557.696L1828.81 612.943C1827.82 613.725 1827.24 614.869 1827.49 615.979C1827.59 616.353 1827.77 616.656 1828 616.974L1724.54 691.088C1724.24 690.842 1723.92 690.649 1723.49 690.546ZM1774.78 558.066L1722.65 690.288C1722.19 690.239 1721.67 690.261 1721.17 690.402C1720.9 690.483 1720.7 690.612 1720.45 690.726L1629.68 570.492C1630.48 569.925 1630.98 569.111 1631.09 568.262L1772.68 555.845C1772.67 555.932 1772.65 555.984 1772.69 556.052C1772.92 557.041 1773.74 557.73 1774.78 558.066ZM1626.9 571.316L1626.77 696.717L1554.2 699.545C1554.19 699.425 1554.23 699.32 1554.2 699.166C1553.99 698.331 1553.41 697.666 1552.62 697.303L1626.16 571.226C1626.39 571.251 1626.63 571.31 1626.9 571.316ZM1546.82 700.907C1546.91 701.248 1547.1 701.498 1547.26 701.767L1527.47 715.005L1456.37 610.553L1547.88 698.071C1547.05 698.864 1546.57 699.884 1546.82 700.907ZM1454.34 610.363C1454.53 610.32 1454.73 610.191 1454.9 610.115L1526.65 715.539L1435.59 776.347C1434.76 775.624 1433.45 775.282 1432.12 775.579C1431.47 775.744 1430.92 776.078 1430.44 776.46L1342.32 714.488C1342.96 713.738 1343.26 712.847 1343.08 711.958C1342.96 711.464 1342.67 711.045 1342.25 710.684L1451.36 609.971C1452.2 610.435 1453.27 610.632 1454.34 610.363ZM1071.75 777.489L977.884 820.411C977.13 819.357 975.559 818.837 973.943 819.181L954.61 762.861C955.668 762.472 956.475 761.732 956.832 760.856L1071.55 776.016C1071.49 776.38 1071.47 776.725 1071.56 777.066C1071.55 777.239 1071.67 777.355 1071.75 777.489ZM951.968 762.99L931.897 824.585L810.077 832.5C810.081 832.414 810.086 832.328 810.071 832.208C810.038 832.054 809.919 831.939 809.824 831.77L950.149 762.033C950.642 762.529 951.291 762.829 951.968 762.99ZM803.881 835.483L760.673 885.422L719.362 848.928C719.975 848.317 720.347 847.56 720.35 846.716L802.718 833.895C802.718 833.895 802.737 833.929 802.695 833.948C802.867 834.63 803.317 835.145 803.881 835.483ZM720.283 929.506C720.321 929.573 720.34 929.607 720.378 929.674L635.467 966.947L618.155 960.99L629.771 947.614L720.283 929.506ZM617.194 960.703L599.963 954.794C600.151 954.373 600.193 953.975 600.173 953.562L628.302 947.934L617.194 960.703ZM596.422 957.011L597.25 980.925C597.103 980.948 596.98 980.919 596.834 980.942C594.816 981.424 593.459 983.169 593.851 984.807C593.865 984.927 593.965 985.009 594.003 985.076L577.146 992.66L595.448 956.983C595.756 957.056 596.068 957.043 596.422 957.011ZM594.359 985.802C594.573 986.086 594.852 986.298 595.193 986.525L549.995 1045.58L576.568 993.804L594.359 985.802ZM532.683 1065.46L485.558 1088.65L432.647 1060.85C432.849 1060.55 433.01 1060.27 433.089 1059.94L532.434 1064.27C532.421 1064.53 532.345 1064.77 532.436 1065.03C532.531 1065.19 532.649 1065.31 532.683 1065.46ZM375.108 1142.37L356.555 1150.25L425.075 1065.54L375.108 1142.37ZM374.633 1143.13L371.698 1147.65L343.821 1166.74C343.703 1166.62 343.603 1166.54 343.461 1166.48L355.867 1151.1L374.633 1143.13ZM342.817 1166.09C342.065 1165.8 341.218 1165.71 340.273 1165.92C338.529 1166.32 337.379 1167.68 337.326 1169.1L308.32 1172.04C308.306 1171.92 308.353 1171.81 308.338 1171.69C308.324 1171.57 308.224 1171.49 308.148 1171.36L354.445 1151.7L342.817 1166.09ZM546.898 1049.62L538.632 1060.44L574.655 994.659L575.25 994.393L546.898 1049.62ZM308.302 1172.39L337.308 1169.44C337.322 1169.56 337.275 1169.67 337.29 1169.79C337.682 1171.43 339.665 1172.39 341.726 1171.89C341.872 1171.87 341.938 1171.8 342.066 1171.74L346.608 1182.15C345.739 1182.49 345.088 1183.04 344.721 1183.71L308.149 1173.34C308.247 1173.04 308.327 1172.71 308.302 1172.39ZM350.335 1182.33L369.029 1159.42L510.482 1109.42L351.112 1182.96C350.917 1182.71 350.657 1182.53 350.335 1182.33ZM520.586 1103.55L543.48 1068.18L621.253 1107.21C621.051 1107.51 620.891 1107.79 620.811 1108.12L522.077 1106C522.109 1105.78 522.142 1105.55 522.07 1105.33C521.884 1104.53 521.334 1103.93 520.586 1103.55ZM627.18 1106.2L705.085 1023.41L740.387 1036.24C740.11 1036.79 740.017 1037.38 740.132 1037.96C740.18 1038.23 740.355 1038.45 740.488 1038.68L627.355 1106.41C627.341 1106.29 627.26 1106.25 627.18 1106.2ZM849.984 1016.76C850.442 1018.33 852.345 1019.25 854.363 1018.76C855.856 1018.39 856.988 1017.38 857.278 1016.2L894.019 1018.56L894.203 1018.61C894.18 1018.66 894.199 1018.69 894.218 1018.73L752.415 1035.67L849.984 1016.76ZM898.598 1015.54L901.558 987.869L972.981 945.754C973.019 945.821 973.08 945.836 973.142 945.85L900.15 1016.03C899.686 1015.77 899.198 1015.57 898.598 1015.54ZM979.483 942.465L1075.11 902.761L1112.44 928.723C1112.07 929.186 1111.85 929.747 1111.8 930.317L979.584 942.926C979.588 942.84 979.612 942.787 979.574 942.72C979.578 942.633 979.498 942.585 979.483 942.465ZM1118.87 928.797L1176.49 895.515L1283.75 896.982L1119.12 929.234C1119.07 929.047 1118.95 928.931 1118.87 928.797ZM1291.15 895.947L1417.84 860.811C1418.43 862.147 1420.13 862.902 1421.9 862.535L1454.1 959.474C1453.44 959.726 1452.86 960.112 1452.44 960.595L1290.88 897.543C1291.16 896.998 1291.24 896.494 1291.15 895.947ZM1457.03 959.299L1509.34 831.256C1509.84 831.286 1510.36 831.265 1510.88 831.156C1511.91 830.906 1512.77 830.353 1513.28 829.66L1624.57 869.585C1624.32 870.164 1624.16 870.739 1624.29 871.354C1624.35 871.541 1624.47 871.657 1624.56 871.825L1458.44 960.101C1458.07 959.721 1457.6 959.465 1457.03 959.299ZM1628.43 867.355L1627.7 724.968C1627.81 724.964 1627.87 724.978 1627.95 724.94C1629.09 724.686 1629.97 723.994 1630.47 723.18L1746.62 754.821C1746.42 755.328 1746.34 755.832 1746.46 756.326C1746.57 756.821 1746.86 757.24 1747.28 757.601L1630.21 867.78C1629.68 867.509 1629.13 867.377 1628.43 867.355ZM1749.44 752.462C1749.35 752.5 1749.27 752.538 1749.18 752.576L1723.45 696.044C1724.98 695.359 1725.97 693.905 1725.61 692.507C1725.5 692.133 1725.31 691.796 1725.1 691.512L1828.56 617.398C1828.76 617.562 1828.89 617.712 1829.12 617.823L1751.41 752.465C1750.81 752.353 1750.15 752.312 1749.44 752.462ZM1883.1 485.195L1779.14 552.955C1778.28 552.198 1776.97 551.857 1775.61 552.173C1775.52 552.211 1775.48 552.23 1775.39 552.268L1738.49 471.516C1739.41 471.064 1740.09 470.38 1740.42 469.556L1882.65 483.456C1882.61 483.768 1882.55 484.046 1882.62 484.353C1882.75 484.675 1882.94 484.925 1883.1 485.195ZM1737.64 471.896C1737.73 471.858 1737.77 471.839 1737.85 471.801L1774.8 552.534C1773.63 553.1 1772.85 554.081 1772.71 555.155L1631.1 567.538C1631.11 567.452 1631.13 567.399 1631.1 567.332C1630.98 566.837 1630.69 566.418 1630.33 566.072L1734.59 471.49C1735.46 471.988 1736.53 472.184 1737.64 471.896ZM1625.28 570.988L1551.74 697.065C1551.12 696.918 1550.46 696.877 1549.74 697.028C1549.28 697.151 1548.86 697.341 1548.49 697.546L1456.25 609.3C1456.99 608.632 1457.36 607.789 1457.31 606.93L1623.8 569.413C1624.08 570.09 1624.61 570.654 1625.28 570.988ZM1450.74 609.532L1341.63 710.245C1340.78 709.781 1339.73 709.618 1338.64 709.853C1338.6 709.872 1338.56 709.891 1338.51 709.91L1282.44 588.407C1283.27 587.993 1283.88 587.382 1284.21 586.644L1449.94 607.274C1449.9 607.586 1449.87 607.898 1449.93 608.205C1450.09 608.767 1450.38 609.186 1450.74 609.532ZM1281.51 588.826C1281.55 588.807 1281.59 588.788 1281.63 588.769L1337.71 710.272C1337.41 710.405 1337.17 710.553 1336.96 710.734L1223.78 634.551C1224.38 633.82 1224.63 632.948 1224.43 632.112C1224.33 631.651 1224.06 631.266 1223.76 630.934L1278.17 588.208C1279.01 588.844 1280.24 589.137 1281.51 588.826ZM1219.08 635.852L1171.84 745.143C1171.33 745.079 1170.79 745.067 1170.22 745.194C1169.8 745.298 1169.48 745.484 1169.14 745.636L1069.67 641.568C1070.28 641.043 1070.68 640.44 1070.82 639.745L1217.09 633.454C1217.11 633.574 1217.08 633.713 1217.09 633.833C1217.29 634.842 1218.08 635.497 1219.08 635.852ZM1065.04 642.331C1065.55 642.569 1066.19 642.662 1066.81 642.636L1074.59 773.183C1074.54 773.202 1074.52 773.169 1074.48 773.188C1073.12 773.503 1072.18 774.387 1071.73 775.388L957.01 760.228C957.071 759.863 957.089 759.518 957.003 759.177C956.888 758.596 956.475 758.148 955.997 757.772L1065.04 642.331ZM949.892 761.389L809.567 831.126C808.823 830.279 807.536 829.885 806.156 830.081L791.864 759.111C793.234 758.709 794.239 757.754 794.567 756.637L949.634 760.366C949.644 760.572 949.593 760.764 949.603 760.97C949.698 761.138 949.816 761.254 949.892 761.389ZM789.088 759.004C789.718 759.271 790.441 759.326 791.236 759.224L805.527 830.194C803.84 830.695 802.732 832.034 802.764 833.411L720.396 846.231C720.377 846.198 720.377 846.198 720.419 846.179C720.247 845.497 719.797 844.982 719.195 844.576L789.088 759.004ZM628.985 947.164L600.143 952.943C600.019 952.535 599.767 952.184 599.473 951.851L712.102 851.629L628.985 947.164ZM575.805 993.302L575.252 993.549L582.044 981.151L575.805 993.302ZM537.391 1061.16C536.776 1061.02 536.133 1061.01 535.462 1061.14C533.968 1061.52 532.879 1062.51 532.546 1063.71L433.201 1059.38C433.215 1059.12 433.29 1058.88 433.199 1058.62C433.185 1058.5 433.104 1058.45 433.047 1058.35L573.569 995.188L537.391 1061.16ZM355.091 1150.86L307.901 1170.92C307.806 1170.75 307.669 1170.6 307.55 1170.49L426.052 1063.13L355.091 1150.86Z" fill="url(#paint0_linear_120_31447)"/>
</g>
</g>
<defs>
<linearGradient id="paint0_linear_120_31447" x1="2557.06" y1="534.443" x2="368.819" y2="148.974" gradientUnits="userSpaceOnUse">
<stop stop-color="#546FFF"/>
<stop offset="1" stop-color="#1B2D8B"/>
</linearGradient>
<clipPath id="clip0_120_31447">
<rect width="1440" height="1024" fill="white"/>
</clipPath>
</defs>
</svg>
