<svg width="60" height="47" viewBox="0 0 60 47" fill="none" xmlns="http://www.w3.org/2000/svg">
<g clip-path="url(#clip0_1568_56912)">
<path d="M60 37.012C60 42.1465 55.819 46.3275 50.6845 46.3275H0V9.43266C0 4.2982 4.18102 0.117188 9.31547 0.117188H60V37.012Z" fill="white"/>
<path d="M43.4962 27.5501H47.347C47.4572 27.5501 47.7138 27.5135 47.8239 27.5135C48.5575 27.3668 49.181 26.7066 49.181 25.7897C49.181 24.9096 48.5575 24.2494 47.8239 24.0661C47.7138 24.0293 47.494 24.0293 47.3472 24.0293H43.4965V27.5501H43.4962Z" fill="url(#paint0_linear_1568_56912)"/>
<path d="M46.9071 3.23438C43.2396 3.23438 40.2321 6.20531 40.2321 9.90937V16.841H49.6577C49.8778 16.841 50.1345 16.841 50.3177 16.8776C52.4449 16.9877 54.022 18.0879 54.022 19.9948C54.022 21.4985 52.9584 22.7822 50.978 23.0391V23.1122C53.1417 23.2589 54.7922 24.4692 54.7922 26.3395C54.7922 28.3568 52.9584 29.677 50.5378 29.677H40.1956V43.2469H49.9877C53.6552 43.2469 56.6627 40.2762 56.6627 36.5719V3.23438H46.9071Z" fill="url(#paint1_linear_1568_56912)"/>
<path d="M48.704 20.4352C48.704 19.5549 48.0806 18.968 47.347 18.8579C47.2739 18.8579 47.0904 18.8213 46.9804 18.8213H43.4962V22.0486H46.9804C47.0906 22.0486 47.3104 22.0486 47.3472 22.0121C48.0808 21.9019 48.7043 21.3153 48.7043 20.435L48.704 20.4352Z" fill="url(#paint2_linear_1568_56912)"/>
<path d="M10.0122 3.23438C6.34472 3.23438 3.33722 6.20531 3.33722 9.90937V26.3766C5.20777 27.2932 7.15144 27.8801 9.09535 27.8801C11.4058 27.8801 12.6527 26.4865 12.6527 24.5794V16.8042H18.374V24.5426C18.374 27.5498 16.5037 30.0073 10.1589 30.0073C6.30816 30.0073 3.30066 29.1635 3.30066 29.1635V43.2101H13.0928C16.7603 43.2101 19.7678 40.2394 19.7678 36.5351V3.23484H10.012L10.0122 3.23438Z" fill="url(#paint3_linear_1568_56912)"/>
<path d="M28.4597 3.23438C24.7922 3.23438 21.7847 6.20531 21.7847 9.90937V18.638C23.4719 17.2076 26.4058 16.2907 31.1369 16.5108C33.6675 16.6209 36.3813 17.3177 36.3813 17.3177V20.1417C35.0243 19.4449 33.4108 18.8212 31.3202 18.6745C27.7261 18.4179 25.5623 20.1783 25.5623 23.2589C25.5623 26.3763 27.7261 28.1367 31.3202 27.8433C33.4108 27.6966 35.0245 27.0366 36.3813 26.3763V29.2003C36.3813 29.2003 33.704 29.8971 31.1369 30.0073C26.4058 30.2271 23.4719 29.3102 21.7849 27.8801V43.2834H31.5771C35.2446 43.2834 38.2519 40.3127 38.2519 36.6084V3.23484H28.4597V3.23438Z" fill="url(#paint4_linear_1568_56912)"/>
</g>
<defs>
<linearGradient id="paint0_linear_1568_56912" x1="-283.531" y1="200.505" x2="1364.58" y2="200.505" gradientUnits="userSpaceOnUse">
<stop stop-color="#007940"/>
<stop offset="0.2285" stop-color="#00873F"/>
<stop offset="0.7433" stop-color="#40A737"/>
<stop offset="1" stop-color="#5CB531"/>
</linearGradient>
<linearGradient id="paint1_linear_1568_56912" x1="43.2091" y1="2002.26" x2="1691.41" y2="2002.26" gradientUnits="userSpaceOnUse">
<stop stop-color="#007940"/>
<stop offset="0.2285" stop-color="#00873F"/>
<stop offset="0.7433" stop-color="#40A737"/>
<stop offset="1" stop-color="#5CB531"/>
</linearGradient>
<linearGradient id="paint2_linear_1568_56912" x1="-283.579" y1="179.73" x2="1364.63" y2="179.73" gradientUnits="userSpaceOnUse">
<stop stop-color="#007940"/>
<stop offset="0.2285" stop-color="#00873F"/>
<stop offset="0.7433" stop-color="#40A737"/>
<stop offset="1" stop-color="#5CB531"/>
</linearGradient>
<linearGradient id="paint3_linear_1568_56912" x1="6.19888" y1="2002.26" x2="1679.79" y2="2002.26" gradientUnits="userSpaceOnUse">
<stop stop-color="#1F286F"/>
<stop offset="0.4751" stop-color="#004E94"/>
<stop offset="0.8261" stop-color="#0066B1"/>
<stop offset="1" stop-color="#006FBC"/>
</linearGradient>
<linearGradient id="paint4_linear_1568_56912" x1="12.2996" y1="2002.24" x2="1637.76" y2="2002.24" gradientUnits="userSpaceOnUse">
<stop stop-color="#6C2C2F"/>
<stop offset="0.1735" stop-color="#882730"/>
<stop offset="0.5731" stop-color="#BE1833"/>
<stop offset="0.8585" stop-color="#DC0436"/>
<stop offset="1" stop-color="#E60039"/>
</linearGradient>
<clipPath id="clip0_1568_56912">
<rect width="60" height="46.4062" fill="white" transform="translate(0 0.117188)"/>
</clipPath>
</defs>
</svg>
