<svg width="60" height="47" viewBox="0 0 60 47" fill="none" xmlns="http://www.w3.org/2000/svg">
<g clip-path="url(#clip0_1568_56907)">
<path d="M10.9078 46.409V43.3221C10.9078 42.1385 10.1874 41.3669 8.95244 41.3669C8.3351 41.3669 7.66619 41.5727 7.20307 42.2416C6.84307 41.6756 6.32861 41.3669 5.55682 41.3669C5.04213 41.3669 4.52791 41.5211 4.11611 42.0871V41.4698H3.03564V46.409H4.11611V43.6821C4.11611 42.8076 4.57924 42.3958 5.29971 42.3958C6.01971 42.3958 6.38018 42.8589 6.38018 43.6821V46.409H7.46064V43.6821C7.46064 42.8076 7.97486 42.3958 8.64377 42.3958C9.36424 42.3958 9.72424 42.8589 9.72424 43.6821V46.409H10.9078ZM26.9088 41.4698H25.1597V39.9778H24.0792V41.4698H23.1017V42.4471H24.079V44.7112C24.079 45.8432 24.5421 46.5119 25.7771 46.5119C26.2402 46.5119 26.7544 46.3577 27.1149 46.1519L26.806 45.2257C26.4973 45.4314 26.1373 45.483 25.8799 45.483C25.3655 45.483 25.1597 45.1743 25.1597 44.6596V42.4471H26.9088V41.4698ZM36.0673 41.3667C35.4499 41.3667 35.0384 41.6756 34.781 42.0871V41.4698H33.7006V46.409H34.781V43.6307C34.781 42.8076 35.141 42.3445 35.8099 42.3445C36.0157 42.3445 36.2731 42.3961 36.4789 42.4474L36.7875 41.4185C36.5817 41.3669 36.2731 41.3669 36.0673 41.3669V41.3667ZM22.227 41.8814C21.7123 41.5211 20.9921 41.3669 20.2203 41.3669C18.9856 41.3669 18.1624 41.9843 18.1624 42.9618C18.1624 43.7852 18.7798 44.2481 19.8603 44.4025L20.3747 44.4541C20.9407 44.5568 21.2494 44.7112 21.2494 44.9686C21.2494 45.3286 20.8378 45.5859 20.1174 45.5859C19.3971 45.5859 18.8311 45.3286 18.4709 45.0714L17.9564 45.8946C18.5224 46.3061 19.2942 46.5119 20.0658 46.5119C21.5065 46.5119 22.3299 45.8432 22.3299 44.917C22.3299 44.0423 21.661 43.5792 20.6318 43.425L20.1174 43.3734C19.6542 43.3218 19.2942 43.2192 19.2942 42.9105C19.2942 42.5503 19.6542 42.3445 20.2203 42.3445C20.8378 42.3445 21.4552 42.6016 21.7638 42.7561L22.227 41.8814ZM50.9367 41.3669C50.3192 41.3669 49.9076 41.6756 49.6503 42.0871V41.4698H48.5698V46.409H49.6503V43.6307C49.6503 42.8076 50.0105 42.3445 50.6792 42.3445C50.8852 42.3445 51.1425 42.3961 51.3483 42.4474L51.657 41.4185C51.4512 41.3669 51.1425 41.3669 50.9367 41.3669ZM37.1478 43.9394C37.1478 45.4314 38.1767 46.5119 39.7718 46.5119C40.4921 46.5119 41.0065 46.3577 41.521 45.9461L41.0065 45.0714C40.5949 45.3801 40.1834 45.5343 39.7203 45.5343C38.8456 45.5343 38.2282 44.917 38.2282 43.9394C38.2282 43.0134 38.8456 42.3958 39.7203 42.3445C40.1834 42.3445 40.5949 42.4987 41.0065 42.8076L41.521 41.9329C41.0065 41.5211 40.4921 41.3669 39.7718 41.3669C38.1767 41.3669 37.1478 42.4474 37.1478 43.9394ZM47.1293 43.9394V41.4698H46.0489V42.0871C45.6886 41.6243 45.1742 41.3669 44.5053 41.3669C43.1161 41.3669 42.0356 42.4474 42.0356 43.9394C42.0356 45.4314 43.1161 46.5119 44.5053 46.5119C45.2255 46.5119 45.7402 46.2548 46.0489 45.7917V46.409H47.1293V43.9394ZM43.1674 43.9394C43.1674 43.0647 43.7335 42.3445 44.6595 42.3445C45.5342 42.3445 46.1517 43.0134 46.1517 43.9394C46.1517 44.8141 45.5342 45.5343 44.6595 45.5343C43.7335 45.4828 43.1674 44.8141 43.1674 43.9394ZM30.2534 41.3669C28.8127 41.3669 27.7835 42.3958 27.7835 43.9394C27.7835 45.483 28.8124 46.5119 30.3047 46.5119C31.0249 46.5119 31.7454 46.3061 32.3114 45.8432L31.7967 45.0714C31.3852 45.3801 30.8707 45.5859 30.3563 45.5859C29.6874 45.5859 29.0185 45.2772 28.864 44.4023H32.5172V43.991C32.5688 42.3958 31.6428 41.3669 30.2534 41.3669ZM30.2534 42.2929C30.9221 42.2929 31.3854 42.7047 31.4881 43.4765H28.9156C29.0185 42.8076 29.4816 42.2929 30.2534 42.2929ZM57.0593 43.9394V39.5146H55.9788V42.0871C55.6186 41.6243 55.1042 41.3669 54.4353 41.3669C53.0461 41.3669 51.9656 42.4474 51.9656 43.9394C51.9656 45.4314 53.0461 46.5119 54.4353 46.5119C55.1557 46.5119 55.6702 46.2548 55.9788 45.7917V46.409H57.0593V43.9394ZM53.0977 43.9394C53.0977 43.0647 53.6635 42.3445 54.5897 42.3445C55.4644 42.3445 56.0817 43.0134 56.0817 43.9394C56.0817 44.8141 55.4644 45.5343 54.5897 45.5343C53.6635 45.4828 53.0977 44.8141 53.0977 43.9394ZM16.9788 43.9394V41.4698H15.8984V42.0871C15.5381 41.6243 15.0237 41.3669 14.3548 41.3669C12.9656 41.3669 11.8852 42.4474 11.8852 43.9394C11.8852 45.4314 12.9656 46.5119 14.3548 46.5119C15.0753 46.5119 15.5897 46.2548 15.8984 45.7917V46.409H16.9788V43.9394ZM12.9656 43.9394C12.9656 43.0647 13.5317 42.3445 14.4577 42.3445C15.3324 42.3445 15.9499 43.0134 15.9499 43.9394C15.9499 44.8141 15.3324 45.5343 14.4577 45.5343C13.5317 45.4828 12.9656 44.8141 12.9656 43.9394Z" fill="black"/>
<path d="M21.8667 3.96143H38.0737V33.0828H21.8667V3.96143Z" fill="#FF5F00"/>
<path d="M22.8959 18.5224C22.8959 12.6056 25.6741 7.3575 29.9445 3.96164C26.8062 1.49203 22.8445 0 18.5227 0C8.28352 0 0 8.28351 0 18.5224C0 28.7611 8.28352 37.0448 18.5224 37.0448C22.8443 37.0448 26.8059 35.5528 29.9445 33.083C25.6741 29.7387 22.8959 24.4392 22.8959 18.5224Z" fill="#EB001B"/>
<path d="M59.9404 18.5224C59.9404 28.7611 51.6569 37.0448 41.418 37.0448C37.0961 37.0448 33.1345 35.5528 29.996 33.083C34.3178 29.6873 37.0448 24.4392 37.0448 18.5224C37.0448 12.6056 34.2663 7.3575 29.996 3.96164C33.1343 1.49203 37.0961 0 41.418 0C51.6569 0 59.9404 8.33508 59.9404 18.5224Z" fill="#F79E1B"/>
</g>
<defs>
<clipPath id="clip0_1568_56907">
<rect width="60" height="46.6406" fill="white"/>
</clipPath>
</defs>
</svg>
