<svg xmlns="http://www.w3.org/2000/svg" xmlns:xlink="http://www.w3.org/1999/xlink" width="793" height="566" viewBox="0 0 793 566">
  <defs>
    <clipPath id="clip-path">
      <rect id="Rectangle_1" data-name="Rectangle 1" width="793" height="566" transform="translate(90 852)" fill="none" stroke="#707070" stroke-width="1" opacity="0.39"/>
    </clipPath>
  </defs>
  <g id="vectorLogin" transform="translate(-90 -852)" clip-path="url(#clip-path)">
    <g id="vectorLogin-2" data-name="vectorLogin" transform="translate(102.402 914.205)" opacity="0.8">
      <path id="Path_1" data-name="Path 1" d="M-899.841,710.593a4.043,4.043,0,0,0,2.567-1.866l36.572,10.368a2.72,2.72,0,0,0-.232,1.663c.392,1.638,2.376,2.6,4.436,2.1,2.018-.481,3.375-2.227,2.964-3.9-.014-.12-.114-.2-.171-.3L-689.994,643.1a3.822,3.822,0,0,0,3.866,1.1,3.8,3.8,0,0,0,2.939-2.622l98.734,2.118a2.483,2.483,0,0,0,.006.672c.392,1.637,2.376,2.605,4.394,2.123,2.06-.5,3.375-2.226,2.983-3.864a2.37,2.37,0,0,0-.356-.726L-464.3,574.164a3.939,3.939,0,0,0,3.629.864,3.607,3.607,0,0,0,2.942-3.087L-311.1,554.4c.019.034-.023.053,0,.087.391,1.637,2.375,2.605,4.435,2.105,2.018-.482,3.375-2.227,2.964-3.9a2.806,2.806,0,0,0-.925-1.357l73.011-70.145a4.31,4.31,0,0,0,2.989.391,3.772,3.772,0,0,0,2.981-3.02l132.215-12.608c.038.067-.028.139.01.206.392,1.637,2.376,2.605,4.436,2.105a3.536,3.536,0,0,0,2.956-3.346L78.661,432.683a3.534,3.534,0,0,0,4.322,1.9,4.009,4.009,0,0,0,2.252-1.387l161.561,63.052a2.637,2.637,0,0,0-.28,1.769c.392,1.637,2.376,2.605,4.436,2.105s3.375-2.227,2.964-3.9a2.071,2.071,0,0,0-.266-.471l166.138-88.243a4.079,4.079,0,0,0,3.728.946c2.06-.5,3.375-2.227,2.983-3.864a2.428,2.428,0,0,0-.826-1.275L542.724,293.108a4.431,4.431,0,0,0,2.971.357c2.018-.481,3.375-2.227,2.964-3.9a2.793,2.793,0,0,0-1.584-1.863l77.664-134.623a4.041,4.041,0,0,0,1.929.022c2.018-.481,3.375-2.227,2.964-3.9a2.36,2.36,0,0,0-.356-.726L774.309,58.126a3.969,3.969,0,0,0,3.53.782c2.06-.5,3.375-2.227,2.964-3.9-.392-1.638-2.376-2.6-4.436-2.1a4.171,4.171,0,0,0-2.36,1.478L684.48,19.435a2.733,2.733,0,0,0,.326-1.874c-.411-1.671-2.376-2.605-4.436-2.1a3.9,3.9,0,0,0-2.8,2.306L535.383,3.929a2.6,2.6,0,0,0,.026-.9c-.392-1.638-2.376-2.605-4.436-2.1-2.018.481-3.375,2.227-2.964,3.9a2.652,2.652,0,0,0,.764,1.26l-104.3,94.6a4.346,4.346,0,0,0-3.051-.406,3.526,3.526,0,0,0-2.96,3.433l-166.5,37.517a3.524,3.524,0,0,0-4.265-1.8,4,4,0,0,0-2.709,2.182L79.261,120.978a2.546,2.546,0,0,0-.012-.964c-.392-1.637-2.375-2.605-4.436-2.105-2.018.481-3.375,2.227-2.983,3.864a2.681,2.681,0,0,0,.665,1.179L18.082,165.678a3.965,3.965,0,0,0-3.33-.618,3.8,3.8,0,0,0-2.948,2.794l-146.27,6.291c-.014-.12.014-.259,0-.379-.392-1.637-2.376-2.605-4.436-2.105-2.018.481-3.375,2.227-2.964,3.9a2.478,2.478,0,0,0,1.006,1.4L-249.844,292.419a4.251,4.251,0,0,0-2.79-.227,3.955,3.955,0,0,0-2.934,2.536L-410.636,291c-.01-.206.042-.4.032-.6-.411-1.671-2.376-2.6-4.436-2.1-2.018.481-3.375,2.227-2.964,3.9a2.757,2.757,0,0,0,1.224,1.6l-70,85.576a4.462,4.462,0,0,0-2.606-.183c-2.018.481-3.375,2.226-2.964,3.9a2.52,2.52,0,0,0,.745,1.226L-606.471,486.5a4.185,4.185,0,0,0-3.051-.406c-2.018.482-3.375,2.227-2.964,3.9a2.842,2.842,0,0,0,1.768,1.907l-20.42,37.3-141.481,63.636a3.686,3.686,0,0,0-3.885-1.129c-2.018.481-3.375,2.227-2.964,3.9a2.509,2.509,0,0,0,.746,1.226L-898.375,705.173a4.147,4.147,0,0,0-2.99-.391c-2.017.481-3.375,2.226-2.964,3.9C-903.885,710.125-901.921,711.059-899.841,710.593ZM773.8,57.51,628.787,147.9a3.2,3.2,0,0,0-1.17-.657L680.3,21.558a3.887,3.887,0,0,0,1.541-.1,4.13,4.13,0,0,0,2.36-1.478l89.527,34.948A2.732,2.732,0,0,0,773.4,56.8,4.7,4.7,0,0,0,773.8,57.51ZM-490.428,384.879a4.409,4.409,0,0,0,1.585.261l5.419,75.908a3.159,3.159,0,0,0-1.643,2.843l-89.779,17.991Zm353.043-207.32a6.074,6.074,0,0,0,1.082-.442l99.472,104.068A3,3,0,0,0-38,284.025l-88.51,25.9a3.354,3.354,0,0,0-3.23-1.759l-7.777-130.547Zm153.613-6.583a4.454,4.454,0,0,0,1.686-.88l113.175,76.182a2.946,2.946,0,0,0-.643,1.974L-30.733,282.083a3,3,0,0,0-1.943-1.745l47.24-109.292A4.5,4.5,0,0,0,16.228,170.976ZM679.482,21.333,626.8,147.015a4.771,4.771,0,0,0-1.56.066,4.632,4.632,0,0,0-1.167.48L573.507,92.314a3.1,3.1,0,0,0,1.321-3.036,3.344,3.344,0,0,0-.433-.861l103.96-67.76A2.776,2.776,0,0,0,679.482,21.333ZM541.7,289.222l-116.144-31.64a2.5,2.5,0,0,0,.138-1.453L513.218,229.7a3.567,3.567,0,0,0,4.189,1.668l.255-.114,25.777,56.513A4.411,4.411,0,0,0,541.7,289.222ZM249.622,494.185l-32.2-96.939c1.653-.656,2.727-2.148,2.369-3.632l-.076-.135,81.816-28.889A3.068,3.068,0,0,0,303.286,366L250.978,494.042A4.133,4.133,0,0,0,249.622,494.185ZM85.738,430.318a2.178,2.178,0,0,0-.338-.692l49.592-40.232,77.484,5.217a2.384,2.384,0,0,0-.008.552ZM-578.675,640.726a4.279,4.279,0,0,0-2.124-.273l-21.573-119.147,101.447,36.825Zm-111.379-.846a2.455,2.455,0,0,0-.473,1.9L-815.365,671.7l-.076-.135,95.932-47.178ZM-815.8,670.928a3.2,3.2,0,0,0-1.222-.845l39.991-72.615a4.047,4.047,0,0,0,1.991.037,4.335,4.335,0,0,0,2.054-1.172l52.627,27.679Zm-1.837-.991a4.031,4.031,0,0,0-1.99-.037c-2.018.481-3.375,2.227-2.965,3.9.015.12.133.235.19.336l-6.348,2.714,48.1-74.008Zm-4.579,4.62c.038.068.052.188.133.236l-9.709,6.663,2.529-3.914Zm152.149-72.371a4.555,4.555,0,0,0,1.744-.022,5.7,5.7,0,0,0,1.294-.537l-15.991,31.186Zm4.7-3.833c-.019-.034.024-.053.005-.087a2.673,2.673,0,0,0-1.367-1.665l6.8-8.9Zm-5.135,3.73-15.294,36.1a4.556,4.556,0,0,0-1.744.021,4.373,4.373,0,0,0-2.054,1.172l-29.214-15.346,46.634-22.929A3.06,3.06,0,0,0-670.5,602.083ZM-861.034,702l26.952-18.467-7.875,12.082-18.906,6.688C-860.962,702.221-860.977,702.1-861.034,702Zm.528,1.028,17.847-6.3-13.178,20.23a4.093,4.093,0,0,0-2.156-.047.9.9,0,0,0-.3.133l-4.542-10.405C-861.2,705.952-860.167,704.479-860.506,703.028Zm19.075-6.763,4.4-1.546-16.677,20.446Zm.721-1.082,8.308-12.823,10.634-7.288a2.727,2.727,0,0,0,.46.343L-836.1,693.542Zm19.823-19.493a4.469,4.469,0,0,0,2.687.232,3.492,3.492,0,0,0,2.946-3.553l121.875-29.23-141.856,50.143Zm155.127-74.547,3.338,1.669-20.1,31.083Zm.278-.546,8.732-16.976,43.908-57.377-49.241,76.037Zm264.73-229.742a4.268,4.268,0,0,0,1.854.267l6.38,72.611-20.576,4.484-30.932-27.351Zm362.98-86.34a3.068,3.068,0,0,0,1.541,1.5l-25.925,50.091-64.4-24.014a2.8,2.8,0,0,0,.274-1.682ZM130.6,248.987a2.638,2.638,0,0,0,.674,1.005L44.728,330.407l-75.842-45.793a2.9,2.9,0,0,0,.53-1.8Zm382.394-20.066c.014.12-.033.226.024.327l-87.54,26.39a3.239,3.239,0,0,0-2.959-1.753l.02-21.469ZM81.53,428.617a4.765,4.765,0,0,0-.68.3L53.887,385.965a3.532,3.532,0,0,0,1.655-1.878l38.411,2.588L82.778,428.564A5.069,5.069,0,0,0,81.53,428.617ZM-62.481,336.76l-40.055,77.408L-128.732,314a4.358,4.358,0,0,0,1.807-1.231ZM96.5,364.031l-31.988-.36,9.04-14.922,23.5,14.191A2.372,2.372,0,0,0,96.5,364.031Zm-.027.518a2.464,2.464,0,0,0,.006.672l.057.1-41.27,16.4a2.944,2.944,0,0,0-1.09-.988L64.22,364.183ZM53.3,380.494a3.984,3.984,0,0,0-2.033-.018,4.737,4.737,0,0,0-.954.385l-14.64-16.976,27.487.309ZM12.8,361.178l10.821-10.069,10.528,12.238-20.578-.238a1.462,1.462,0,0,0-.007-.671A2.65,2.65,0,0,0,12.8,361.178Zm-.658-.507a4.256,4.256,0,0,0-2.97-.357,1.869,1.869,0,0,0-.425.19l-40.978-74.292,55.345,64.281Zm1.445,2.938,21.014.253L49.605,381.3a5.066,5.066,0,0,0-.566.506L13.093,364.628A2.772,2.772,0,0,0,13.582,363.609Zm90.226-.316,120.631-47.941c.057.1.052.188.152.27l-75.365,61.164-45.442-11.838a2.8,2.8,0,0,0,.119-1.486C103.865,363.394,103.785,363.346,103.808,363.293Zm-4.341-1.936a4.013,4.013,0,0,0-1.794.971L74.008,348.041l58.9-97.222.019.034L100.7,361.271A4.178,4.178,0,0,0,99.467,361.357Zm32.56-110.776-58.8,97.011L45.433,330.808l86.475-80.343C131.946,250.532,131.965,250.566,132.027,250.581ZM72.789,348.334l-9.332,15.347-28.234-.311L24.206,350.55l20.571-19.112Zm-49.091,1.6L-31.86,285.369a.353.353,0,0,0,.132-.143L44.1,330.985Zm-57.263-63.718a1.87,1.87,0,0,0,.425-.19l41.224,74.73a4.474,4.474,0,0,0-1.3,1L-61.3,336.4l25.949-50.143A4.793,4.793,0,0,0-33.564,286.216ZM6.482,362.443a2.791,2.791,0,0,0-.279,1.769,3.1,3.1,0,0,0,.323.572l-106.655,58.552-2.077-7.924,40.581-78.361Zm-109.709,53.046-5.425,10.48a6.39,6.39,0,0,0-1.183-.019l-17.942-104.413Zm-3.043,12.154-.076-.134,5.492-3.005.377,1.517Zm-.4-.706a2.8,2.8,0,0,0-1.1-.729l4.893-9.441,1.872,7.089ZM-121.04,422.7l-109-56.338-.058-4.443,3.645-1.842Zm-234.353,125-60.358-40.621,24.3-34.947a4.262,4.262,0,0,0,2.3.11l.255-.114,35.605,75.811Zm-118.619-13.67a2.8,2.8,0,0,0,.007-.931,3.466,3.466,0,0,0-.546-1.062l4.771-3.526,1.132,6.155Zm-4.918-68.418,48.868,32.9-19.57,14.426L-469.2,527.369l-11.221-61A4.717,4.717,0,0,0-478.93,465.614Zm86.749,6.258-24.172,34.8-12.452-8.384,36.226-26.748A1.279,1.279,0,0,0-392.181,471.872Zm-1.4-2.577a2.3,2.3,0,0,0,0,.844,3.463,3.463,0,0,0,.547,1.063l-36.269,26.766-48.948-32.95a4,4,0,0,0,.574-1.058Zm-76.289,58.584-5.14,3.817a3.565,3.565,0,0,0-2.389-.743l-.441-5.874-2.934-56.32Zm.823.138,19.775-14.581,19.774-14.581,12.694,8.529-21.388,30.775-29.608-3.406Zm52.783-20.242,59.036,39.694-80.179-9.239Zm82.07-75.885,37.225-8.1.1.169-88.945,42.955Zm96.324-65.44-34.24,34.417,30.776-32.066Zm5.908-1.041a2.586,2.586,0,0,0,.444-2.138,2.451,2.451,0,0,0-.285-.505l.873-.433.038,3.651Zm1.026-3.748-1.129.548a3.413,3.413,0,0,0-1.118-.849l.9-1.33a4.622,4.622,0,0,0,1.357.236Zm-1.816-1.8c.062.015.1.082.161.1l-.9,1.331a3.141,3.141,0,0,0-.511-.151Zm-5.71,6.012-.151.11.132-.144Zm-5.11,4.436-47.653,49.609a7.368,7.368,0,0,0-.795-.276l6.873-21.12Zm-49.252,49.229a6.526,6.526,0,0,0-1.291.071,4.373,4.373,0,0,0-2.054,1.172l-12.329-6.373,22.251-15.1Zm-3.811,1.831a3,3,0,0,0-.483,1.692l-35.334,7.671,23.327-15.833Zm6.9,1c-.01-.206.042-.4.013-.638a2.56,2.56,0,0,0-1.025-1.438l53.3-53.569a3.916,3.916,0,0,0,2.01.45l2.932,57.164Zm59.629-61.123-.007-1.05.312-.013a4.386,4.386,0,0,0,1.879-1.01l.947.546Zm-3.106-1.73-1.471,1.544a4,4,0,0,0-.918.073l-.788-3.189,2.146-.159a1.556,1.556,0,0,0,.006.293A2.58,2.58,0,0,0-233.212,359.517Zm-5.532,5.764-2.065,2.189-43.9,29.844,10.382-31.88,35.456-.854c.033.153-.056.278-.023.431C-238.881,365.131-238.782,365.213-238.744,365.281Zm-97.592,67.061-50.874,34.566a3.706,3.706,0,0,0-2.555-.754l-1.914-21.784Zm-54.223,33.914c-.043.019-.062-.015-.1,0a4.186,4.186,0,0,0-1.422.594L-412.4,448.877l19.924-4.318Zm-2.073,1.138a3.774,3.774,0,0,0-.923,1.383l-84.141-5.316a1.151,1.151,0,0,0,0-.38l64.35-13.992Zm-81.586,67.4.289.039,5.463.718,6.176,33.579-.042.019-13.938-32.425A3.977,3.977,0,0,0-474.218,534.8Zm244.2-59.17a4.669,4.669,0,0,0-1.488.666l-59.28-51.727a3.211,3.211,0,0,0,.966-1.4l57.393,1.979,2.617,50.476A.794.794,0,0,0-230.016,475.629Zm123.985-47a1.546,1.546,0,0,1-.005-.293l5.75-1.6.5,2.012ZM55.706,383.339a1.861,1.861,0,0,0,0-.758l-.076-.135,41.27-16.4a3.235,3.235,0,0,0,2.193,1.338l-4.913,18.556Zm94.5-6.319,75.039-60.892a3.616,3.616,0,0,0,1.671.6l-10.646,74.706a4.453,4.453,0,0,0-.832.035,4.048,4.048,0,0,0-2.544,1.813Zm66.669,14.356,10.646-74.706a4.459,4.459,0,0,0,.832-.035,4.155,4.155,0,0,0,1.837-.991l40.712,26.1-52.6,50.093A3.737,3.737,0,0,0,216.879,391.376Zm87.315-31.222a4.138,4.138,0,0,0-1.837.99l-30.288-19.418,55.942-53.318-22.546,71.64A6.627,6.627,0,0,0,304.194,360.154Zm25.081-72.9,8.344-7.949a1.863,1.863,0,0,0,.53.184.217.217,0,0,1,.161.1l-30.183,74.8ZM339.993,273.6a7.5,7.5,0,0,0-.875.055,3.16,3.16,0,0,0-.553.247l-3.45-5.076,9.483-30.171Zm-2.363.72a3.16,3.16,0,0,0-1.519,3.251l.019.034-4.266,1.4,2.814-8.974Zm-1.234,3.756a2.843,2.843,0,0,0,.522.736l-7.165,6.832,1.871-6.023Zm82.114-21.855a3.077,3.077,0,0,0-.2,1.352l-69.03,16.55a3.5,3.5,0,0,0-4.3-1.87,4.055,4.055,0,0,0-2.544,1.813c-.142-.063-.307-.073-.449-.136a3.544,3.544,0,0,0-1.5-.385l4.675-35.482a7.721,7.721,0,0,0,.874-.054,3.927,3.927,0,0,0,2.544-1.813Zm-87.8,23.766-2.143,6.861-57.164,54.455-40.712-26.1a2.979,2.979,0,0,0,.689-2.458l-.019-.034Zm-460.579,34.26,19.256,111.836a5.144,5.144,0,0,0-1.666.914l-113.3-67.356,92.514-46.534A3.556,3.556,0,0,0-129.866,314.25Zm-155.983,83.784L-309.37,414l-86.26-44.631a3.247,3.247,0,0,0,.446-1l119.919-2.891Zm-112.217-26.947a4.373,4.373,0,0,0,2.054-1.172l86.038,44.52-24.639,16.715L-391.8,443.583l-6.366-72.492C-398.127,371.072-398.108,371.106-398.066,371.087Zm-83.443,95.428,1.481,28.091-2-28.069A1.307,1.307,0,0,0-481.509,466.515Zm.135,67.4a3.125,3.125,0,0,0-.031.983A2.476,2.476,0,0,0-480.4,536.3l-15.076,16.02L-540.217,527.1ZM-461.515,569l-6.147-33.339,28.55,3.8-20.667,29.694A4.084,4.084,0,0,0-461.515,569Zm105.669-20.589,1.184.777a4.242,4.242,0,0,0-.414.776l-82.661-11Zm7.4.1-.515-.064a3.279,3.279,0,0,0-.928-.513l11.538-25.4,12.435,12.692Zm-2.219-.82a4.937,4.937,0,0,0-1.665.07l-.255.114L-388.3,471.864l.3-.133,49.067,50.141Zm-36.737-76.4a3.3,3.3,0,0,0,1.051-1.44l69.2,4.033-21.482,47.3Zm1.172-2.169a4.212,4.212,0,0,0,.017-.724,2.132,2.132,0,0,0-.266-.471l89.86-43.408a3.07,3.07,0,0,0,1.464.99L-316.8,473.181Zm91.874-43.423.185.044-5.144,48.424-16.618-.955Zm1.04-.044a1.736,1.736,0,0,0,.605-.06,4.626,4.626,0,0,0,1.488-.665l59.28,51.727a3.213,3.213,0,0,0-.9,1.33l-65.62-3.821Zm61.653-.474,1.409.044.347,33.91Zm-.04-.825-2.97-57.232c.043-.019.1,0,.147-.023a4.071,4.071,0,0,0,1.619-.809l2,1.38.59,56.694Zm1.681-56.066,84.988,59.07-84.39-2.928Zm.376-.843,116.662,60.288a3.339,3.339,0,0,0-.348.7l-30.023-1.029ZM-106.1,429.462l6.535.07,8.615,32.994-.043.019-17.106-30.965A3.571,3.571,0,0,0-106.1,429.462Zm7.365-.723-.607-2.3,64.968-18.274-20.68,21.183Zm-.8-3.016-.449-1.738L6.849,365.356l.3.246L-33.4,407.142ZM7.767,366.041a4.287,4.287,0,0,0,2.871.276,4.628,4.628,0,0,0,1.337-.556L35.319,387.78l-67.307,18.941Zm4.689-.748a1.458,1.458,0,0,0,.349-.325L48.752,382.15a2.838,2.838,0,0,0-.477,1.984L36.014,387.6Zm36.094,19.518.1.169-9.523,5.483-2.474-2.308Zm.541.77a3.989,3.989,0,0,0,3.648.9,4.207,4.207,0,0,0,.638-.286L80.34,429.149l-.17.076L39.7,391.007Zm45.625.372,4.932-18.522a3.722,3.722,0,0,0,1.229-.086,4.045,4.045,0,0,0,2.544-1.813l45.116,11.731-14.024,11.375Zm54.865-8.441,62.892,16.341-76.7-5.147Zm69.427,14.808,52.621-50.145,30.288,19.418a2.975,2.975,0,0,0-.689,2.458l.076.135-81.774,28.87A2.767,2.767,0,0,0,219.009,392.32Zm87.421-32.071,32.453-80.5a3.873,3.873,0,0,0,2.1.033,2.753,2.753,0,0,0,.51-.228l20.233,31.505-54.515,49.433A6.052,6.052,0,0,0,306.43,360.249Zm35.946-81.008a4.006,4.006,0,0,0,1.207-1.257,4.49,4.49,0,0,0,2.871.275,3.476,3.476,0,0,0,2.951-3.639l69.029-16.549a2.146,2.146,0,0,0,.674,1l-56.651,51.4Zm79.159-25.3a.615.615,0,0,0-.251.028,3.968,3.968,0,0,0-2.543,1.813l-69.947-19.973a3.3,3.3,0,0,0,.193-.508l72.588-2.795Zm-77.586-15.964-9.432,29.98L322.68,250.572,342.552,237.3A3.338,3.338,0,0,0,343.949,237.979Zm-9.826,31.168-3.185,10.11L231.06,312.179c-.057-.1-.072-.221-.171-.3l90.974-60.77ZM223.964,314.511l.076.135L103.409,362.587a3.325,3.325,0,0,0-1.97-1.227l32.229-110.418a4.949,4.949,0,0,0,1.229-.086,5.21,5.21,0,0,0,1.705-.847l88.116,61.972A2.771,2.771,0,0,0,223.964,314.511Zm-450.212,44.8-1.188-.691a2.808,2.808,0,0,0,.556-2.315,1.526,1.526,0,0,0-.228-.4l83.123-37.99Zm-7.978-2.249-2.311.149L-250.053,301.2l18.27,53.211A3.428,3.428,0,0,0-234.226,357.062Zm-17.2-58.959,14.265,59.134-35.282,2.294,20-61.351C-252.136,298.167-251.782,298.135-251.427,298.1Zm14.414,59.869.8,3.308a3.7,3.7,0,0,0-2.689,2.594l-35.248.846,1.436-4.437Zm-37.966,6.783-105.932,2.578,107.344-6.962Zm-139.06,83.674-63.741,13.846a2.387,2.387,0,0,0-1.015-1.232l34.26-39.57Zm-65.338,12.242a4.539,4.539,0,0,0-1.916-.281l-6.164-69.589-.426-5.753a.356.356,0,0,1,.042-.02,4.165,4.165,0,0,0,1.422-.593l41.41,36.576Zm-2.563-.2c-.043.019-.1,0-.147.023a1.547,1.547,0,0,0-.382.171l-2.276-31.571Zm-1.054,5.868,4.615,64.674-.042.019a4.4,4.4,0,0,0-2.427,1.549l-88.068-30.288,84.3-37.04A3.536,3.536,0,0,0-482.994,466.337Zm1.845,66.841c-.042.019-.023.053-.066.072l-60.494-7-35.85-20.218,7.646-3.337ZM-606.1,490.933l14.921,8.418L-603.7,513.764l-3.961-21.921A4.015,4.015,0,0,0-606.1,490.933Zm15.688,8.833,11.19,6.335-23.984,10.52-.322-1.8ZM-604.1,517.02l-.34.152a4.294,4.294,0,0,0-.592-.578l.707-.822Zm-2.513,4.792a4.367,4.367,0,0,0,2.021-1.325l1.2.431,17.415,96.217Zm2.369-2.029c.023-.053.066-.072.047-.106l.558.046.048.274Zm.268-.752a3.133,3.133,0,0,0,.03-.984c-.014-.12-.114-.2-.171-.3l.128-.057.259,1.4Zm.879-1.743,24.579-10.786,34.6,19.513-58.843-6.812Zm24.894-11.643-11.635-6.558,2.188-2.538,16.9,5.8Zm-12.4-6.973-14.134-7.969,16.19,5.573ZM-604.56,514.7l-1.258,1.449a4.175,4.175,0,0,0-1.751-.271l-.756-22.091Zm109.791,38.024,15.01-15.948a4.251,4.251,0,0,0,2.79.227l.256-.114,13.937,32.425a4.057,4.057,0,0,0-1.181.739Zm169.351-17,15.569,15.885a3.42,3.42,0,0,0-.938,1.263l-36.5-4.2Zm235.441-73.463-8.566-32.72,42.666.6-31.687,32.432A4.3,4.3,0,0,0-89.977,462.261ZM83.336,428.61l11.156-41.923,39.238,2.639L84.7,429.138A3.5,3.5,0,0,0,83.336,428.61ZM422.915,106.23a5.531,5.531,0,0,0,.723-.324L514.4,226.14a3.434,3.434,0,0,0-1.413,2.023l-90.5,3.514.175-125.42A.95.95,0,0,1,422.915,106.23Zm-1032,415.634a4.27,4.27,0,0,0,1.655.1l25.667,118.664a4.587,4.587,0,0,0-1.78,1.092L-661.4,602.648Zm6.573-1.465-.1-.547,60.2,6.961,46.377,26.133-4.263,4.521Zm107.149,32.967,29.52,16.642-33.693-12.246Zm37.665,17.678a2.589,2.589,0,0,0-1.39-1.613l20.738-29.852,83.054,11.03a1.866,1.866,0,0,0,.011.586Zm109.486-21.749,29.443,3.4L-347.9,550.8a2.8,2.8,0,0,0,.007-.931A3.082,3.082,0,0,0-348.212,549.295Zm40.157,1.343a4.991,4.991,0,0,0-1.209.5L-324.752,535.3l20.174-11.893-2.872,27.171C-307.639,550.621-307.866,550.6-308.055,550.638Zm-17.19-15.834-12.748-13.058,21.741-47.882,16.845.98-5.084,47.681Zm26.684-59.875,65.56,3.807a4.117,4.117,0,0,0-.017.724,2.13,2.13,0,0,0,.337.692l-70.932,41.854Zm69.609.6-.55-50.3,85.572,2.948,13.159,9.163L-226.1,476.912A3.279,3.279,0,0,0-228.952,475.533Zm86.781-47.258,28.737,1.014c.01.206-.041.4-.012.638.014.12.1.168.152.269l-16.4,6.789Zm29.143,2.392a3.676,3.676,0,0,0,3.98,1.3,2.687,2.687,0,0,0,.51-.228L-91.432,462.7a4.185,4.185,0,0,0-.642.372l-37.056-25.75Zm26.041,32.364,32.126-32.881,24.683.34L-86.787,463.2A.547.547,0,0,0-86.987,463.031Zm32.894-33.689L-33,407.763l68.909-19.4,2.612,2.458-67.332,38.893ZM39.1,391.36l40.573,38.3a3.214,3.214,0,0,0-1.055,1.526l-105.972-1.452Zm268.788-30.328,54.3-49.251,58.545,91.265a4.921,4.921,0,0,0-1.024.922l-111.29-39.926a2.8,2.8,0,0,0,.279-1.769A3.161,3.161,0,0,0,307.884,361.032Zm114.159,41.424a2.755,2.755,0,0,0-.51.228l-58.7-91.534L419.7,259.568a3.989,3.989,0,0,0,1.865.473l.724,142.387C422.251,402.447,422.128,402.418,422.043,402.456Zm96.228-176.91L570.384,93.29a3.957,3.957,0,0,0,1.48-.114,4.63,4.63,0,0,0,1.166-.48l50.565,55.247a3.1,3.1,0,0,0-1.32,3.036,3.028,3.028,0,0,0,.508.995L519.322,226.088A2.511,2.511,0,0,0,518.271,225.546Zm51.294-132.48L517.433,225.289a3.962,3.962,0,0,0-1.479.113,5.532,5.532,0,0,0-.723.324L424.469,105.492a3.278,3.278,0,0,0,1.4-2.23L567.46,90.845c0,.086-.028.139.01.206A2.93,2.93,0,0,0,569.565,93.066Zm-147.879,13.25-.132,125.4-72.569,2.828a2.4,2.4,0,0,0,0-.379A2.791,2.791,0,0,0,347.4,232.3l73.544-126.077C421.171,106.251,421.417,106.31,421.686,106.316ZM341.608,235.907a3.4,3.4,0,0,0,.432.86l-19.787,13.238-71.1-104.452,91.515,87.518A2.981,2.981,0,0,0,341.608,235.907ZM249.13,145.363a3.23,3.23,0,0,0,.552-.248l71.754,105.424-91.059,60.808a4.014,4.014,0,0,0-3.468-.768,4.476,4.476,0,0,0-1.686.881l-88.116-61.972a2.958,2.958,0,0,0,.755-2.53,2.449,2.449,0,0,0-.826-1.274l109.1-100.712A4.147,4.147,0,0,0,249.13,145.363Zm-382.6,167.126-93.862,42.922a3.855,3.855,0,0,0-3.942-1.23L-250.6,297.862a3.745,3.745,0,0,0,2.222-2.006l114.721,15.16a2.529,2.529,0,0,0,.007,1.051C-133.664,312.239-133.545,312.355-133.469,312.489Zm-119.779-14.5-20.07,61.6L-395.139,367.5a1.544,1.544,0,0,0-.005-.293,1.842,1.842,0,0,0-.247-.438l140.325-69.737A3.753,3.753,0,0,0-253.248,297.99Zm-148.087,72.493-43.207,49.94-41.311-36.495a3.118,3.118,0,0,0,.987-2.212l82.369-12.821s.019.034-.024.053A2.51,2.51,0,0,0-401.335,370.483Zm-83.6,94.023.1.168-84.911,37.273-17.312-5.957,11.617-13.376Zm-103.088,31.2-17.231-5.909a2.591,2.591,0,0,0,.209-1.232l28.129-5.628Zm-20.772-3.692.827,23.914c-.146.023-.269-.006-.416.017-2.018.482-3.375,2.227-2.983,3.865.015.12.114.2.152.269l-16.856,7.584,18.3-35.677A2.992,2.992,0,0,0-608.793,492.011Zm-2.063,28.791a3.22,3.22,0,0,0,.834.723l-45.2,59.051,26.573-51.772Zm-61.677,79.661-47.125,23.192-52.911-27.805a2.816,2.816,0,0,0,.443-.915l99.345,4.333a1.862,1.862,0,0,0,0,.758A1.8,1.8,0,0,1-672.533,600.463ZM-830.108,677.37l-18.552,7.879,68.519-84.7Zm-.475.761-2.934,4.517-27.877,19.091a1.192,1.192,0,0,0-.36-.26l12.406-15.374ZM-862.4,701.092a4.267,4.267,0,0,0-2.544-.168,3.588,3.588,0,0,0-2.947,3.173L-896.9,707.04c-.015-.12.032-.225.018-.345s-.114-.2-.19-.337l46.3-19.659Zm204.081-116.475-8.266,10.823,36.023-65.781.595-.266Zm-238.6,122.769,29.005-2.943c.015.12-.032.225-.018.345.392,1.637,2.376,2.6,4.436,2.1a1.215,1.215,0,0,0,.34-.152l4.543,10.4a3.609,3.609,0,0,0-1.888,1.561l-36.572-10.367A2.492,2.492,0,0,0-896.913,707.386Zm42.032,9.947,18.694-22.908,141.454-50.006L-854.1,717.955A2.686,2.686,0,0,0-854.881,717.333Zm170.251-78.784,22.894-35.37,77.774,39.027a2.778,2.778,0,0,0-.442.914L-683.138,641a1.48,1.48,0,0,0-.007-.672A2.691,2.691,0,0,0-684.63,638.549Zm106.594,2.649,77.906-82.79,35.3,12.832a2.624,2.624,0,0,0-.256,1.717,2.37,2.37,0,0,0,.356.726L-577.86,641.415A.289.289,0,0,0-578.036,641.2Zm222.8-89.437c.458,1.566,2.361,2.485,4.379,2a3.836,3.836,0,0,0,2.916-2.569l36.74,2.365.185.044a.116.116,0,0,0,.015.12l-141.8,16.94Zm48.614-1.218,2.96-27.674,71.423-42.115a.215.215,0,0,0,.161.1l-72.991,70.179A3.448,3.448,0,0,0-306.618,550.543Zm80.886-73.078,95.624-39.7,37.336,25.962a2.938,2.938,0,0,0-.644,1.6l-132.216,12.608c.005-.086.028-.139-.01-.206C-225.637,477.633-225.718,477.585-225.732,477.465ZM-86.341,463.8l57.615-33.282,107.258,1.467L-86.094,464.234A1.809,1.809,0,0,0-86.341,463.8Zm172.275-32.85,126.688-35.136a3.572,3.572,0,0,0,4.061,1.724l32.2,96.939a4.174,4.174,0,0,0-1.657,1.121L85.663,432.543A2.437,2.437,0,0,0,85.933,430.947ZM251.816,494.3l52.308-128.043a5.828,5.828,0,0,0,1.541-.1,4.227,4.227,0,0,0,2.4-1.5l111.29,39.925a2.8,2.8,0,0,0-.279,1.769,2.132,2.132,0,0,0,.266.471L253.227,495.1A3.149,3.149,0,0,0,251.816,494.3Zm171.4-91.944-.724-142.387a.593.593,0,0,0,.25-.028,3.976,3.976,0,0,0,2.521-1.76L541.4,289.821a2.525,2.525,0,0,0-.162,1.506,2.443,2.443,0,0,0,.826,1.274L424.995,402.78A4,4,0,0,0,423.211,402.355ZM544.223,287.462l-.255.114-25.735-56.532a3.241,3.241,0,0,0,2.157-3.537,3.042,3.042,0,0,0-.509-1L623.342,152.4a2.941,2.941,0,0,0,.559.425L546.2,287.465A4.984,4.984,0,0,0,544.223,287.462ZM677.881,20.195l-103.96,67.76a3.967,3.967,0,0,0-3.529-.782l-.213.1-36.9-80.752A3.845,3.845,0,0,0,535.2,4.556l142.228,13.9a2.6,2.6,0,0,0-.026.9A6.655,6.655,0,0,0,677.881,20.195ZM532.425,6.9l.213-.1,36.946,80.733a3.533,3.533,0,0,0-2.088,2.621L425.89,102.538c0-.086.028-.139-.01-.206a2.652,2.652,0,0,0-.765-1.26L529.375,6.49A4.035,4.035,0,0,0,532.425,6.9ZM420.064,105.988,346.52,232.065a4.46,4.46,0,0,0-1.991-.037,5.4,5.4,0,0,0-1.252.518L251.032,144.3a2.928,2.928,0,0,0,1.058-2.371l166.5-37.517A3.075,3.075,0,0,0,420.064,105.988ZM245.52,144.532,136.415,245.245a4.311,4.311,0,0,0-2.989-.392l-.128.057-56.073-121.5A3.675,3.675,0,0,0,79,121.644l165.726,20.63a2.8,2.8,0,0,0-.007.931A2.9,2.9,0,0,0,245.52,144.532ZM76.29,123.826l.127-.057,56.074,121.5a3.121,3.121,0,0,0-.751.462L18.565,169.551a2.787,2.787,0,0,0,.646-2.439,2.672,2.672,0,0,0-.665-1.178L72.96,123.208A3.972,3.972,0,0,0,76.29,123.826ZM13.868,170.852l-47.24,109.291a4.667,4.667,0,0,0-1.622.051,6.087,6.087,0,0,0-1.082.442l-99.473-104.068a3.283,3.283,0,0,0,1.154-1.823l146.27-6.291c.014.12-.014.259,0,.379A2.793,2.793,0,0,0,13.868,170.852Zm-154.043,6.48a3.9,3.9,0,0,0,1.769.3l7.777,130.547c-.043.019-.062-.014-.1,0a3.922,3.922,0,0,0-2.751,2.2l-114.721-15.16a2.546,2.546,0,0,0-.008-1.051,2.469,2.469,0,0,0-1.006-1.4ZM-255.323,296.389l-140.325,69.737a3.8,3.8,0,0,0-3.412-1.045l-14.291-70.97a3.856,3.856,0,0,0,2.7-2.474l155.067,3.729c.01.206-.042.4-.032.6C-255.518,296.138-255.4,296.254-255.323,296.389ZM-416.127,294a4.109,4.109,0,0,0,2.147.22l14.291,70.97a3.532,3.532,0,0,0-2.762,3.217l-82.369,12.821c-.019-.034-.019-.034.024-.053a2.762,2.762,0,0,0-1.224-1.6Zm-160.1,188.16-28.843,5.779a2.991,2.991,0,0,0-.669-1.091l112.628-100.223ZM-629.41,528.3l-.553.247,6.792-12.4Zm-38.415,67.863a4.5,4.5,0,0,0-1.929-.023,3.872,3.872,0,0,0-2.916,2.57l-99.344-4.333a1.879,1.879,0,0,0,0-.758c-.015-.12-.1-.168-.152-.269l140.521-63.164Zm-182.3,89.7-47.189,20.059a2.035,2.035,0,0,0-.351-.434l118.5-107.361Z" fill="#fff"/>
    </g>
  </g>
</svg>
