<svg width="60" height="20" viewBox="0 0 60 20" fill="none" xmlns="http://www.w3.org/2000/svg">
<g clip-path="url(#clip0_1568_56905)">
<path d="M31.0305 6.86992C30.9963 9.50612 33.4359 10.9771 35.2737 11.8518C37.1618 12.7492 37.796 13.3247 37.7885 14.1272C37.7745 15.3554 36.2824 15.8974 34.8863 15.9185C32.4504 15.9554 31.0341 15.2762 29.9081 14.7625L29.0306 18.7729C30.1603 19.2813 32.2521 19.7247 34.4212 19.7441C39.513 19.7441 42.8442 17.2892 42.8623 13.4831C42.8822 8.65249 36.0213 8.38512 36.0682 6.22598C36.0844 5.57129 36.724 4.87263 38.1255 4.695C38.8193 4.60526 40.7344 4.53659 42.9056 5.51314L43.7578 1.63302C42.5902 1.21777 41.0895 0.820141 39.221 0.820141C34.4285 0.820141 31.0577 3.30845 31.0305 6.86992ZM51.9464 1.15436C51.0166 1.15436 50.2331 1.68407 49.8834 2.49695L42.6101 19.4591H47.6981L48.7106 16.7261H54.9281L55.5155 19.4591H60L56.0866 1.15436H51.9464ZM52.6582 6.09916L54.1266 12.9728H50.1052L52.6582 6.09916ZM24.8616 1.15459L20.8509 19.4589H25.6995L29.7082 1.15413H24.8616M17.689 1.15413L12.6424 13.6133L10.601 3.01979C10.3615 1.83721 9.41555 1.15436 8.36508 1.15436H0.115547L0 1.6859C1.69359 2.04484 3.61781 2.62377 4.78359 3.24321C5.49703 3.62161 5.70047 3.95239 5.93484 4.85157L9.80133 19.4591H14.925L22.7803 1.15436L17.689 1.15413Z" fill="url(#paint0_linear_1568_56905)"/>
</g>
<defs>
<linearGradient id="paint0_linear_1568_56905" x1="2758.44" y1="57.7057" x2="2811.94" y2="-1885.89" gradientUnits="userSpaceOnUse">
<stop stop-color="#222357"/>
<stop offset="1" stop-color="#254AA5"/>
</linearGradient>
<clipPath id="clip0_1568_56905">
<rect width="60" height="19" fill="white" transform="translate(0 0.820312)"/>
</clipPath>
</defs>
</svg>
